<?xml version="1.0" standalone="no"?>
<!DOCTYPE svg PUBLIC "-//W3C//DTD SVG 20010904//EN"
 "http://www.w3.org/TR/2001/REC-SVG-20010904/DTD/svg10.dtd">
<svg version="1.0" xmlns="http://www.w3.org/2000/svg"
 width="751.000000pt" height="251.000000pt" viewBox="0 0 751.000000 251.000000"
 preserveAspectRatio="xMidYMid meet">

<g transform="translate(0.000000,251.000000) scale(0.100000,-0.100000)"
fill="#000000" stroke="none">
<path d="M2060 2495 c0 -8 9 -15 20 -15 16 0 20 -7 20 -30 0 -16 5 -30 10 -30
6 0 10 -13 10 -30 0 -23 4 -30 20 -30 13 0 20 -7 20 -20 0 -18 7 -20 75 -20
43 0 75 -4 75 -10 0 -5 23 -10 50 -10 43 0 50 -3 50 -20 0 -17 7 -20 45 -20
33 0 45 -4 45 -15 0 -11 12 -15 50 -15 38 0 50 -4 50 -15 0 -10 10 -15 30 -15
20 0 30 -5 30 -15 0 -10 10 -15 30 -15 23 0 30 -4 30 -20 0 -11 7 -20 15 -20
8 0 15 -4 15 -10 0 -5 7 -10 15 -10 8 0 15 -9 15 -20 0 -11 -7 -20 -15 -20 -8
0 -15 -4 -15 -10 0 -5 -13 -10 -30 -10 -23 0 -30 -4 -30 -20 0 -11 -7 -20 -15
-20 -8 0 -15 -7 -15 -15 0 -8 -9 -15 -20 -15 -11 0 -20 -7 -20 -15 0 -10 -10
-15 -30 -15 -20 0 -30 -5 -30 -15 0 -8 -7 -15 -15 -15 -8 0 -15 -9 -15 -20 0
-11 -7 -20 -15 -20 -8 0 -15 -4 -15 -10 0 -5 -7 -10 -15 -10 -8 0 -15 -9 -15
-20 0 -11 -7 -20 -15 -20 -10 0 -15 -10 -15 -30 0 -20 -5 -30 -15 -30 -11 0
-15 -12 -15 -45 0 -33 4 -45 15 -45 8 0 15 -9 15 -20 0 -11 7 -20 15 -20 8 0
15 9 15 20 0 17 7 20 45 20 33 0 45 4 45 15 0 10 10 15 30 15 20 0 30 5 30 15
0 8 9 15 20 15 11 0 20 7 20 15 0 8 7 15 15 15 8 0 15 9 15 20 0 11 7 20 15
20 8 0 15 5 15 10 0 6 7 10 15 10 8 0 15 9 15 20 0 11 7 20 15 20 8 0 15 5 15
10 0 6 16 10 35 10 28 0 35 4 35 20 0 11 7 20 15 20 8 0 15 7 15 15 0 10 10
15 30 15 20 0 30 5 30 15 0 8 -7 15 -15 15 -10 0 -15 11 -15 35 0 25 -4 35
-16 35 -28 0 -44 27 -44 74 0 39 -3 46 -20 46 -17 0 -20 7 -20 45 0 33 -4 45
-15 45 -8 0 -15 9 -15 20 0 11 -7 20 -15 20 -8 0 -15 5 -15 10 0 6 -13 10 -30
10 -23 0 -30 4 -30 20 0 16 -7 20 -31 20 -17 0 -37 7 -45 15 -9 8 -24 15 -35
15 -10 0 -19 7 -19 15 0 11 -12 15 -45 15 -33 0 -45 4 -45 15 0 11 -12 15 -50
15 -38 0 -50 4 -50 15 0 12 -13 15 -60 15 -47 0 -60 3 -60 15 0 12 -17 15 -95
15 -78 0 -95 -3 -95 -15z"/>
<path d="M3720 2435 c0 -12 -17 -15 -90 -15 -73 0 -90 -3 -90 -15 0 -10 -10
-15 -34 -15 -19 0 -41 -7 -50 -15 -8 -8 -28 -15 -45 -15 -24 0 -31 -4 -31 -20
0 -16 -7 -20 -35 -20 -19 0 -35 -4 -35 -10 0 -5 -13 -10 -30 -10 -23 0 -30 -4
-30 -20 0 -11 -7 -20 -15 -20 -12 0 -15 -15 -15 -75 0 -60 3 -75 15 -75 12 0
15 -14 15 -65 0 -51 -3 -65 -15 -65 -8 0 -15 -7 -15 -15 0 -8 7 -15 15 -15 8
0 15 -7 15 -15 0 -11 12 -15 50 -15 43 0 50 -3 50 -20 0 -17 7 -20 45 -20 25
0 45 -4 45 -10 0 -5 14 -10 30 -10 23 0 30 -4 30 -20 0 -16 7 -20 35 -20 19 0
35 -4 35 -10 0 -5 14 -10 30 -10 23 0 30 -4 30 -20 0 -16 7 -20 30 -20 20 0
30 -5 30 -15 0 -12 17 -15 95 -15 78 0 95 -3 95 -15 0 -8 -7 -15 -15 -15 -8 0
-15 -7 -15 -15 0 -10 -10 -15 -30 -15 -23 0 -30 -4 -30 -20 0 -11 -7 -20 -15
-20 -8 0 -15 -4 -15 -10 0 -5 -9 -10 -20 -10 -15 0 -20 -7 -20 -29 0 -16 -6
-31 -12 -33 -9 -3 -13 -35 -13 -113 0 -78 4 -110 13 -112 6 -3 12 -18 12 -34
0 -22 5 -29 20 -29 11 0 20 -7 20 -15 0 -8 7 -15 15 -15 8 0 15 -7 15 -15 0
-10 10 -15 30 -15 19 0 30 -5 30 -14 0 -15 30 -26 73 -26 17 0 27 -5 27 -15 0
-12 13 -15 60 -15 47 0 60 3 60 15 0 9 9 15 23 15 38 0 67 12 67 26 0 9 11 14
30 14 20 0 30 5 30 15 0 8 9 15 20 15 11 0 20 7 20 15 0 8 7 15 15 15 10 0 15
10 15 30 0 20 5 30 15 30 12 0 15 19 15 115 0 96 -3 115 -15 115 -10 0 -15 10
-15 30 0 20 -5 30 -15 30 -8 0 -15 5 -15 10 0 6 -9 10 -20 10 -13 0 -20 7 -20
20 0 16 -7 20 -30 20 -20 0 -30 5 -30 15 0 10 -10 15 -30 15 -20 0 -30 5 -30
15 0 11 -12 15 -45 15 -33 0 -45 4 -45 15 0 10 -10 15 -30 15 -23 0 -30 4 -30
20 0 13 -7 20 -20 20 -11 0 -20 5 -20 10 0 6 -13 10 -30 10 -23 0 -30 4 -30
20 0 11 -7 20 -15 20 -8 0 -15 5 -15 10 0 6 -13 10 -30 10 -23 0 -30 4 -30 20
0 16 -7 20 -35 20 -24 0 -35 5 -35 15 0 10 -10 15 -30 15 -20 0 -30 5 -30 15
0 11 -12 15 -45 15 -33 0 -45 4 -45 15 0 10 -11 15 -35 15 -28 0 -35 4 -35 20
0 16 -7 20 -30 20 -16 0 -30 5 -30 10 0 6 -22 10 -50 10 -49 0 -50 1 -50 30 0
23 4 30 20 30 13 0 20 7 20 20 0 16 7 20 30 20 20 0 30 5 30 15 0 11 12 15 50
15 38 0 50 4 50 15 0 12 13 15 60 15 47 0 60 3 60 15 0 12 16 15 80 15 73 0
80 2 80 20 0 11 7 20 15 20 12 0 15 13 15 60 0 47 -3 60 -15 60 -8 0 -15 7
-15 15 0 10 -11 15 -35 15 -24 0 -35 -5 -35 -15z m350 -785 c0 -11 7 -20 15
-20 8 0 15 -4 15 -10 0 -5 7 -10 15 -10 11 0 15 -12 15 -50 0 -38 4 -50 15
-50 12 0 15 -17 15 -95 0 -78 -3 -95 -15 -95 -10 0 -15 -10 -15 -30 0 -20 -5
-30 -15 -30 -8 0 -15 -7 -15 -15 0 -8 -7 -15 -15 -15 -8 0 -15 -7 -15 -15 0
-11 -12 -15 -50 -15 -38 0 -50 4 -50 15 0 10 -10 15 -30 15 -27 0 -30 3 -30
30 0 20 -5 30 -15 30 -10 0 -15 11 -15 35 0 24 -5 35 -15 35 -12 0 -15 17 -15
95 0 78 3 95 15 95 11 0 15 11 15 40 0 29 4 40 15 40 8 0 15 9 15 20 0 18 7
20 80 20 73 0 80 -2 80 -20z"/>
<path d="M2880 2265 c0 -24 5 -35 15 -35 10 0 15 -10 15 -30 0 -20 5 -30 15
-30 8 0 15 -9 15 -20 0 -11 -7 -20 -15 -20 -8 0 -15 -4 -15 -10 0 -6 27 -10
60 -10 48 0 60 -3 60 -16 0 -8 -6 -22 -14 -30 -17 -16 -46 -19 -46 -4 0 6 -7
10 -15 10 -8 0 -15 -4 -15 -10 0 -5 7 -10 15 -10 8 0 15 -9 15 -20 0 -18 7
-20 65 -20 l65 0 0 -45 c0 -25 5 -45 10 -45 6 0 10 7 10 15 0 8 9 15 20 15 17
0 20 7 20 50 0 38 -4 50 -15 50 -8 0 -15 5 -15 10 0 6 -7 10 -15 10 -8 0 -15
9 -15 20 0 11 -7 20 -15 20 -10 0 -15 10 -15 29 0 15 -3 49 -6 75 l-7 46 -43
0 c-42 0 -44 -1 -44 -30 0 -20 -5 -30 -15 -30 -11 0 -15 12 -15 50 0 49 -1 50
-30 50 -28 0 -30 -3 -30 -35z"/>
<path d="M3100 2195 c0 -51 3 -65 15 -65 10 0 15 -10 15 -30 0 -27 3 -30 30
-30 23 0 30 4 30 20 0 11 -7 20 -15 20 -8 0 -15 5 -15 10 0 6 -7 10 -15 10
-10 0 -15 11 -15 35 0 24 5 35 15 35 8 0 15 7 15 15 0 8 -9 15 -20 15 -11 0
-20 7 -20 15 0 8 -4 15 -10 15 -6 0 -10 -28 -10 -65z"/>
<path d="M1150 1715 c0 -11 -12 -15 -45 -15 -33 0 -45 -4 -45 -15 0 -10 -10
-15 -30 -15 -23 0 -30 -4 -30 -20 0 -13 -7 -20 -20 -20 -11 0 -20 -4 -20 -10
0 -5 -7 -10 -15 -10 -8 0 -15 -7 -15 -16 0 -8 -7 -22 -15 -30 -8 -9 -15 -31
-15 -50 0 -24 -5 -34 -15 -34 -12 0 -15 -13 -15 -60 0 -45 4 -60 14 -60 8 0
17 -15 20 -35 4 -19 11 -35 16 -35 6 0 10 -13 10 -30 0 -23 4 -30 20 -30 11 0
20 -7 20 -15 0 -9 9 -15 25 -15 15 0 25 -6 25 -14 0 -9 15 -17 40 -21 25 -4
40 -12 40 -21 0 -11 21 -14 105 -14 82 0 105 3 105 14 0 7 14 16 30 20 18 3
30 12 30 21 0 10 10 15 30 15 20 0 30 5 30 15 0 8 9 15 20 15 16 0 20 7 20 30
0 20 5 30 15 30 10 0 15 11 15 35 0 24 5 35 15 35 12 0 15 15 15 75 0 60 -3
75 -15 75 -10 0 -15 10 -15 30 0 20 -5 30 -15 30 -8 0 -15 9 -15 20 0 12 -7
20 -16 20 -20 0 -44 24 -44 44 0 11 -9 16 -30 16 -20 0 -30 5 -30 15 0 11 -12
15 -50 15 -38 0 -50 4 -50 15 0 11 -12 15 -50 15 -38 0 -50 -4 -50 -15z m100
-65 c0 -11 7 -20 15 -20 8 0 15 -4 15 -10 0 -5 7 -10 15 -10 10 0 15 -10 15
-30 0 -19 5 -30 14 -30 18 0 26 -44 26 -145 0 -101 -8 -145 -26 -145 -8 0 -14
-7 -14 -15 0 -8 -7 -15 -15 -15 -8 0 -15 -7 -15 -15 0 -12 -14 -15 -65 -15
-51 0 -65 3 -65 15 0 8 -7 15 -15 15 -8 0 -15 7 -15 15 0 8 -4 15 -9 15 -5 0
-12 14 -16 30 -4 17 -13 30 -21 30 -11 0 -14 24 -14 125 0 104 2 125 15 125 8
0 15 9 15 19 0 11 7 26 15 35 8 8 15 22 15 30 0 13 13 16 65 16 58 0 65 -2 65
-20z"/>
<path d="M2190 1715 c0 -8 -7 -15 -15 -15 -10 0 -15 -11 -15 -35 0 -28 -4 -35
-20 -35 -17 0 -20 -7 -20 -40 0 -22 -4 -40 -10 -40 -5 0 -10 -16 -10 -35 0
-28 -4 -35 -20 -35 -16 0 -20 -7 -20 -30 0 -20 -5 -30 -15 -30 -11 0 -15 -12
-15 -50 0 -38 -4 -50 -15 -50 -10 0 -15 -10 -15 -30 0 -20 -5 -30 -15 -30 -10
0 -15 -10 -15 -30 0 -27 -3 -30 -30 -30 -28 0 -30 -3 -30 -35 l0 -35 105 0
105 0 0 35 c0 32 -2 35 -30 35 -29 0 -30 1 -30 50 0 43 3 50 19 50 11 0 22 6
25 13 5 10 7 10 12 0 7 -15 74 -18 74 -3 0 6 7 10 15 10 8 0 15 -4 15 -10 0
-5 7 -10 15 -10 8 0 15 -9 15 -20 0 -11 7 -20 15 -20 10 0 15 -10 15 -30 0
-27 -3 -30 -30 -30 -28 0 -30 -3 -30 -35 l0 -35 155 0 155 0 0 35 c0 32 -2 35
-30 35 -20 0 -30 5 -30 15 0 8 -7 15 -15 15 -10 0 -15 11 -15 35 0 24 -5 35
-15 35 -11 0 -15 11 -15 40 0 33 -3 40 -20 40 -16 0 -20 7 -20 35 0 19 -4 35
-10 35 -5 0 -10 14 -10 30 0 23 -4 30 -20 30 -17 0 -20 7 -20 50 0 38 -4 50
-15 50 -10 0 -15 10 -15 30 0 20 -5 30 -15 30 -8 0 -15 7 -15 15 0 8 -7 15
-15 15 -8 0 -15 7 -15 15 0 8 -7 15 -15 15 -8 0 -15 -7 -15 -15z m0 -250 c0
-33 4 -45 15 -45 10 0 15 -10 15 -30 l0 -30 -60 0 -60 0 0 30 c0 17 5 30 10
30 6 0 10 14 10 30 0 23 4 30 20 30 11 0 20 7 20 15 0 8 7 15 15 15 11 0 15
-12 15 -45z"/>
<path d="M2880 1715 c0 -11 -12 -15 -50 -15 -38 0 -50 -4 -50 -15 0 -8 -7 -15
-15 -15 -8 0 -15 -9 -15 -20 0 -11 -7 -20 -15 -20 -8 0 -15 -4 -15 -10 0 -5
-7 -10 -15 -10 -12 0 -15 -14 -15 -65 0 -51 3 -65 15 -65 10 0 15 -10 15 -30
0 -27 3 -30 30 -30 23 0 30 -4 30 -20 0 -16 7 -20 35 -20 19 0 35 -4 35 -10 0
-5 14 -10 30 -10 23 0 30 -4 30 -20 0 -11 7 -20 15 -20 8 0 15 -4 15 -10 0 -5
7 -10 15 -10 10 0 15 -11 15 -35 0 -24 -5 -35 -15 -35 -8 0 -15 -7 -15 -15 0
-12 -16 -15 -80 -15 -64 0 -80 3 -80 15 0 8 -7 15 -15 15 -10 0 -15 11 -15 35
0 24 -5 35 -15 35 -8 0 -15 5 -15 10 0 6 -7 10 -15 10 -12 0 -15 -16 -15 -80
l0 -80 30 0 c20 0 30 -5 30 -15 0 -12 19 -15 110 -15 87 0 110 3 110 14 0 7 9
16 20 19 11 3 20 12 20 21 0 10 9 16 24 16 19 0 26 7 31 30 4 17 13 30 21 30
11 0 14 18 14 80 0 73 -2 80 -20 80 -11 0 -20 7 -20 15 0 8 -7 15 -15 15 -8 0
-15 7 -15 15 0 10 -10 15 -30 15 -20 0 -30 5 -30 15 0 10 -10 15 -30 15 -23 0
-30 4 -30 20 0 16 -7 20 -30 20 -16 0 -30 5 -30 10 0 6 -9 10 -20 10 -16 0
-20 7 -20 30 0 23 4 30 20 30 13 0 20 7 20 20 0 17 7 20 45 20 38 0 45 -3 45
-20 0 -11 7 -20 15 -20 8 0 15 -4 15 -10 0 -5 6 -10 14 -10 7 0 16 -13 20 -30
5 -27 26 -43 26 -20 0 6 7 10 15 10 11 0 15 12 15 50 0 38 -4 50 -15 50 -8 0
-15 7 -15 15 0 11 -12 15 -45 15 -33 0 -45 4 -45 15 0 10 -10 15 -30 15 -20 0
-30 -5 -30 -15z"/>
<path d="M3450 1715 c0 -12 -14 -15 -65 -15 -51 0 -65 -3 -65 -15 0 -10 -10
-15 -30 -15 -23 0 -30 -4 -30 -20 0 -13 -7 -20 -20 -20 -11 0 -20 -4 -20 -10
0 -5 -7 -10 -15 -10 -8 0 -15 -9 -15 -20 0 -11 -7 -20 -15 -20 -10 0 -15 -10
-15 -30 0 -19 -5 -30 -14 -30 -21 0 -29 -52 -21 -126 5 -45 11 -64 21 -64 9 0
14 -11 14 -30 0 -23 4 -30 20 -30 11 0 20 -7 20 -15 0 -8 5 -15 10 -15 6 0 10
-7 10 -15 0 -8 9 -15 20 -15 11 0 20 -6 20 -14 0 -14 29 -26 68 -26 13 0 22
-6 22 -15 0 -13 21 -15 125 -15 101 0 125 3 125 14 0 8 14 17 30 21 25 5 30
11 30 36 0 19 5 29 15 29 10 0 15 10 15 30 0 20 -5 30 -15 30 -8 0 -15 7 -15
15 0 8 -7 15 -15 15 -10 0 -15 -10 -15 -30 0 -20 -5 -30 -15 -30 -8 0 -15 -7
-15 -15 0 -8 -7 -15 -15 -15 -8 0 -15 -7 -15 -15 0 -12 -16 -15 -80 -15 -64 0
-80 3 -80 15 0 10 -10 15 -30 15 -27 0 -30 3 -30 30 0 19 -5 30 -14 30 -17 0
-26 31 -26 88 0 23 -4 42 -10 42 -5 0 -10 7 -10 15 0 8 5 15 10 15 6 0 10 20
10 44 0 54 8 76 26 76 8 0 14 9 14 20 0 11 7 20 15 20 8 0 15 5 15 10 0 6 7
10 15 10 8 0 15 9 15 20 0 18 7 20 65 20 58 0 65 -2 65 -20 0 -11 7 -20 15
-20 8 0 15 -4 15 -10 0 -5 7 -10 15 -10 8 0 15 -9 15 -20 0 -16 7 -20 30 -20
l30 0 0 65 0 65 -60 0 c-47 0 -60 3 -60 15 0 11 -12 15 -45 15 -33 0 -45 -4
-45 -15z"/>
<path d="M5450 1700 c0 -20 -5 -30 -15 -30 -8 0 -15 -9 -15 -19 0 -11 -7 -26
-15 -35 -8 -8 -15 -26 -15 -40 0 -16 -6 -26 -15 -26 -10 0 -16 -16 -21 -50 -4
-32 -11 -50 -20 -50 -9 0 -14 -11 -14 -31 0 -17 -7 -37 -15 -45 -8 -9 -15 -29
-15 -45 0 -19 -5 -29 -15 -29 -10 0 -15 -11 -15 -35 0 -24 -5 -35 -15 -35 -8
0 -15 -7 -15 -15 0 -10 -11 -15 -35 -15 -24 0 -35 5 -35 15 0 8 -4 15 -10 15
-6 0 -10 73 -10 200 l0 200 30 0 c23 0 30 4 30 20 0 11 5 20 10 20 6 0 10 7
10 15 0 13 -24 15 -155 15 l-155 0 0 -35 c0 -33 2 -35 35 -35 l35 0 0 -192 c0
-106 -3 -203 -6 -215 -5 -17 -14 -23 -35 -23 -26 0 -29 -3 -29 -35 l0 -35 240
0 c207 0 240 2 240 15 0 8 5 15 10 15 6 0 10 9 10 20 0 17 -7 20 -45 20 l-45
0 0 45 c0 34 4 45 15 45 9 0 18 7 21 15 7 16 34 21 34 6 0 -5 31 -11 69 -13
39 -2 72 -6 74 -8 2 -3 7 -24 11 -47 l6 -43 -35 0 c-24 0 -35 -5 -35 -15 0 -8
7 -15 15 -15 8 0 15 -9 15 -20 0 -19 7 -20 145 -20 138 0 145 1 145 20 0 11 5
20 10 20 6 0 10 7 10 15 0 11 -12 15 -45 15 -43 0 -45 1 -45 30 0 20 -5 30
-15 30 -10 0 -15 10 -15 30 0 20 -5 30 -15 30 -10 0 -15 10 -15 30 0 20 -5 30
-15 30 -11 0 -15 12 -15 50 0 37 -4 50 -15 50 -8 0 -17 14 -21 35 -3 20 -12
35 -20 35 -8 0 -14 10 -14 26 0 14 -7 32 -15 40 -8 9 -15 31 -15 50 0 24 -5
34 -15 34 -8 0 -15 7 -15 15 0 10 -10 15 -30 15 -27 0 -30 -3 -30 -30z m0
-220 c0 -20 5 -30 15 -30 11 0 15 -12 15 -45 l0 -45 -45 0 -45 0 0 60 c0 47 3
60 15 60 8 0 15 7 15 15 0 8 7 15 15 15 10 0 15 -10 15 -30z"/>
<path d="M270 1685 c0 -8 9 -15 20 -15 13 0 20 -7 20 -20 0 -11 7 -20 15 -20
13 0 15 -31 15 -215 l0 -215 -45 0 c-38 0 -45 -3 -45 -20 0 -11 5 -20 10 -20
6 0 10 -7 10 -15 0 -12 19 -15 115 -15 l115 0 0 35 c0 33 -2 35 -35 35 -24 0
-35 5 -35 15 0 8 -7 15 -15 15 -13 0 -15 24 -15 160 0 136 2 160 15 160 8 0
15 -9 15 -20 0 -11 7 -20 15 -20 8 0 15 -7 15 -15 0 -8 9 -15 20 -15 11 0 20
-7 20 -15 0 -8 5 -15 10 -15 6 0 10 -16 10 -35 0 -28 4 -35 20 -35 11 0 20 -4
20 -10 0 -5 7 -10 15 -10 8 0 15 -9 15 -20 0 -11 7 -20 15 -20 8 0 15 -7 15
-15 0 -8 7 -15 15 -15 10 0 15 -10 15 -30 0 -20 5 -30 15 -30 8 0 15 -7 15
-15 0 -8 7 -15 15 -15 8 0 15 -9 15 -20 0 -13 7 -20 20 -20 11 0 20 -7 20 -15
0 -10 10 -15 30 -15 l30 0 0 250 0 250 30 0 c23 0 30 4 30 20 0 11 7 20 15 20
8 0 15 7 15 15 0 12 -19 15 -110 15 l-110 0 0 -35 c0 -33 2 -35 35 -35 l35 0
0 -105 c0 -98 -1 -105 -20 -105 -11 0 -20 7 -20 15 0 8 -7 15 -15 15 -10 0
-15 10 -15 30 0 20 -5 30 -15 30 -8 0 -15 9 -15 20 0 11 -7 20 -15 20 -8 0
-15 5 -15 10 0 6 -7 10 -15 10 -8 0 -15 9 -15 20 0 11 -7 20 -15 20 -8 0 -15
5 -15 10 0 6 -9 10 -20 10 -16 0 -20 7 -20 35 l0 35 -125 0 c-104 0 -125 -2
-125 -15z"/>
<path d="M1470 1685 c0 -8 7 -15 15 -15 8 0 15 -9 15 -20 0 -11 7 -20 15 -20
8 0 15 -4 15 -10 0 -5 7 -10 15 -10 11 0 15 -12 15 -50 0 -43 3 -50 20 -50 16
0 20 -7 20 -30 0 -16 5 -30 10 -30 6 0 10 -16 10 -35 0 -28 4 -35 20 -35 16 0
20 -7 20 -30 0 -16 5 -30 10 -30 6 0 10 -20 10 -45 0 -38 3 -45 20 -45 16 0
20 -7 20 -30 0 -20 5 -30 15 -30 8 0 15 -9 15 -20 0 -16 7 -20 30 -20 28 0 30
3 30 35 0 28 4 35 20 35 16 0 20 7 20 30 0 17 5 30 10 30 6 0 10 23 10 50 0
43 3 50 20 50 16 0 20 7 20 30 0 20 5 30 15 30 10 0 15 10 15 30 0 20 5 30 15
30 11 0 15 12 15 45 0 33 4 45 15 45 10 0 15 10 15 30 0 27 3 30 30 30 23 0
30 4 30 20 0 13 7 20 20 20 11 0 20 7 20 15 0 12 -19 15 -115 15 -96 0 -115
-3 -115 -15 0 -8 9 -15 20 -15 13 0 20 -7 20 -20 0 -11 7 -20 15 -20 10 0 15
-10 15 -30 0 -20 -5 -30 -15 -30 -10 0 -15 -10 -15 -30 0 -23 -4 -30 -20 -30
-17 0 -20 -7 -20 -45 0 -25 -4 -45 -10 -45 -5 0 -10 -9 -10 -20 0 -13 -7 -20
-20 -20 -13 0 -20 7 -20 20 0 11 -7 20 -15 20 -11 0 -15 12 -15 45 0 33 -4 45
-15 45 -10 0 -15 10 -15 30 0 20 -5 30 -15 30 -10 0 -15 10 -15 30 0 20 5 30
15 30 8 0 15 9 15 20 0 11 7 20 15 20 8 0 15 7 15 15 0 13 -24 15 -155 15
-131 0 -155 -2 -155 -15z"/>
<path d="M4350 1655 c0 -33 -4 -45 -15 -45 -8 0 -15 -9 -15 -20 0 -11 7 -20
15 -20 8 0 15 -4 15 -10 0 -5 7 -10 15 -10 8 0 15 5 15 10 0 6 7 10 15 10 10
0 15 10 15 30 0 29 1 30 50 30 l50 0 0 -215 0 -215 -30 0 c-28 0 -30 -3 -30
-35 l0 -35 155 0 155 0 0 35 c0 32 -2 35 -30 35 l-30 0 0 215 0 215 45 0 c43
0 45 -1 45 -30 0 -20 5 -30 15 -30 8 0 15 -4 15 -10 0 -5 7 -10 15 -10 12 0
15 15 15 75 l0 75 -250 0 -250 0 0 -45z"/>
<path d="M270 945 c0 -18 5 -25 20 -25 11 0 20 7 20 15 0 13 306 15 2695 15
2389 0 2695 -2 2695 -15 0 -8 7 -15 15 -15 8 0 15 7 15 15 0 8 7 15 15 15 8 0
15 5 15 10 0 7 -922 10 -2745 10 l-2745 0 0 -25z"/>
<path d="M3790 870 c0 -5 -16 -12 -35 -16 -20 -3 -35 -12 -35 -20 0 -8 -4 -14
-10 -14 -16 0 -12 -27 5 -34 26 -10 105 5 105 20 0 9 11 14 30 14 27 0 30 3
30 30 0 29 -2 30 -45 30 -25 0 -45 -4 -45 -10z"/>
<path d="M270 740 c0 -13 7 -20 20 -20 19 0 20 -7 20 -155 l0 -155 -30 0 c-20
0 -30 -5 -30 -15 0 -8 5 -15 10 -15 6 0 10 -7 10 -15 0 -10 11 -15 35 -15 24
0 35 5 35 15 0 8 7 15 15 15 8 0 15 -7 15 -15 0 -10 10 -15 30 -15 27 0 30 3
30 30 0 27 -3 30 -30 30 l-30 0 0 110 c0 91 3 110 15 110 8 0 15 -7 15 -15 0
-8 7 -15 15 -15 10 0 15 -10 15 -30 0 -20 5 -30 15 -30 8 0 15 -7 15 -15 0 -8
9 -15 20 -15 12 0 20 -7 20 -16 0 -20 24 -44 44 -44 12 0 16 -10 16 -35 0 -24
5 -35 15 -35 8 0 15 -7 15 -15 0 -10 10 -15 30 -15 l30 0 0 175 c0 149 2 175
15 175 8 0 15 7 15 15 0 8 7 15 15 15 8 0 15 7 15 15 0 12 -15 15 -75 15 -68
0 -75 -2 -75 -20 0 -11 7 -20 15 -20 10 0 15 -10 15 -30 0 -20 5 -30 15 -30
11 0 15 -12 15 -45 0 -43 -1 -45 -30 -45 -27 0 -30 3 -30 30 0 23 -4 30 -20
30 -11 0 -20 7 -20 15 0 8 -4 15 -10 15 -5 0 -10 9 -10 20 0 13 -7 20 -20 20
-11 0 -20 7 -20 15 0 8 -7 15 -15 15 -8 0 -15 7 -15 15 0 12 -16 15 -80 15
-73 0 -80 -2 -80 -20z"/>
<path d="M810 746 c0 -8 -13 -17 -30 -21 -16 -4 -30 -11 -30 -16 0 -5 -9 -9
-20 -9 -16 0 -20 -7 -20 -35 0 -24 -5 -35 -15 -35 -12 0 -15 -13 -15 -60 0
-47 3 -60 15 -60 10 0 15 -10 15 -30 0 -23 4 -30 20 -30 13 0 20 -7 20 -20 0
-11 5 -20 10 -20 6 0 10 -7 10 -15 0 -10 11 -15 35 -15 24 0 35 -5 35 -15 0
-12 16 -15 80 -15 64 0 80 3 80 15 0 10 10 15 30 15 20 0 30 5 30 15 0 8 7 15
15 15 8 0 15 9 15 20 0 11 7 20 15 20 12 0 15 18 15 105 0 63 -4 105 -10 105
-5 0 -10 9 -10 20 0 13 -7 20 -20 20 -11 0 -20 7 -20 15 0 8 -9 15 -20 15 -11
0 -20 7 -20 15 0 12 -18 15 -105 15 -84 0 -105 -3 -105 -14z m120 -31 c0 -8 9
-15 20 -15 13 0 20 -7 20 -20 0 -11 7 -20 15 -20 10 0 15 -10 15 -30 0 -16 5
-30 10 -30 6 0 10 -20 10 -45 0 -25 -4 -45 -10 -45 -5 0 -10 -22 -10 -50 l0
-50 -65 0 c-58 0 -65 2 -65 20 0 11 -7 20 -15 20 -8 0 -15 5 -15 10 0 6 -7 10
-15 10 -12 0 -15 17 -15 95 0 78 3 95 15 95 8 0 15 9 15 20 0 11 7 20 15 20 8
0 15 7 15 15 0 10 10 15 30 15 20 0 30 -5 30 -15z"/>
<path d="M1120 740 c0 -11 7 -20 15 -20 8 0 15 -4 15 -10 0 -5 7 -10 15 -10
13 0 15 -23 15 -145 0 -122 2 -145 15 -145 8 0 15 -7 15 -15 0 -10 11 -15 35
-15 24 0 35 -5 35 -15 0 -12 15 -15 75 -15 60 0 75 3 75 15 0 8 9 15 20 15 11
0 20 7 20 15 0 8 7 15 15 15 8 0 15 9 15 20 0 11 7 20 15 20 13 0 15 22 15
135 0 113 2 135 15 135 8 0 15 -4 15 -10 0 -5 9 -10 20 -10 16 0 20 -7 20 -35
0 -19 5 -35 10 -35 6 0 10 -13 10 -30 0 -23 4 -30 20 -30 17 0 20 -7 20 -50 0
-27 5 -50 10 -50 6 0 10 -13 10 -30 0 -23 4 -30 20 -30 16 0 20 -7 20 -30 0
-27 3 -30 30 -30 29 0 30 1 30 50 0 38 4 50 15 50 10 0 15 10 15 30 0 23 4 30
20 30 16 0 20 7 20 30 0 17 5 30 10 30 6 0 10 14 10 30 0 23 4 30 20 30 16 0
20 7 20 35 0 24 5 35 15 35 8 0 15 5 15 10 0 6 7 10 15 10 8 0 15 -4 15 -10 0
-5 7 -10 15 -10 13 0 15 -23 15 -145 l0 -145 -30 0 c-27 0 -30 -3 -30 -30 0
-27 3 -30 30 -30 20 0 30 5 30 15 0 12 13 15 60 15 47 0 60 -3 60 -15 0 -12
14 -15 65 -15 51 0 65 3 65 15 0 8 7 15 15 15 10 0 15 11 15 35 0 24 5 35 15
35 8 0 15 5 15 10 0 6 -13 10 -30 10 -16 0 -30 -4 -30 -10 0 -5 -7 -10 -15
-10 -8 0 -15 -9 -15 -20 0 -17 -7 -20 -50 -20 -49 0 -50 1 -50 30 0 17 -4 30
-10 30 -17 0 -12 57 6 64 31 12 74 7 74 -9 0 -10 10 -15 30 -15 l30 0 0 60 0
60 -30 0 c-20 0 -30 -5 -30 -15 0 -10 -11 -15 -35 -15 -24 0 -35 5 -35 15 0 8
-4 15 -10 15 -5 0 -10 16 -10 35 l0 35 60 0 c53 0 60 -2 60 -20 0 -16 7 -20
30 -20 29 0 30 1 30 50 l0 50 -235 0 c-228 0 -235 -1 -235 -20 0 -13 7 -20 20
-20 17 0 20 -7 20 -45 0 -38 -3 -45 -20 -45 -17 0 -20 -7 -20 -45 0 -43 -1
-45 -30 -45 -29 0 -30 2 -30 45 0 33 -4 45 -15 45 -11 0 -15 12 -15 45 0 33 4
45 15 45 8 0 15 9 15 20 0 19 -7 20 -170 20 -144 0 -170 -2 -170 -15 0 -8 5
-15 10 -15 6 0 10 -7 10 -15 0 -8 9 -15 20 -15 19 0 20 -7 20 -125 0 -118 -1
-125 -20 -125 -13 0 -20 -7 -20 -20 0 -18 -7 -20 -60 -20 -53 0 -60 2 -60 20
0 11 -7 20 -15 20 -13 0 -15 21 -15 125 0 104 2 125 15 125 8 0 15 5 15 10 0
6 7 10 15 10 8 0 15 9 15 20 0 19 -7 20 -110 20 -103 0 -110 -1 -110 -20z"/>
<path d="M2310 740 c0 -12 7 -20 16 -20 8 0 22 -6 30 -14 16 -17 19 -46 4 -46
-15 0 -13 -187 3 -194 10 -5 10 -7 0 -12 -7 -3 -13 -14 -13 -25 0 -12 -7 -19
-20 -19 -16 0 -20 -7 -20 -30 0 -27 3 -30 30 -30 20 0 30 5 30 15 0 11 12 15
50 15 38 0 50 -4 50 -15 0 -11 12 -15 45 -15 33 0 45 4 45 15 0 8 9 15 20 15
11 0 20 -7 20 -15 0 -8 5 -15 10 -15 6 0 10 7 10 15 0 8 9 15 20 15 11 0 20
-7 20 -15 0 -10 10 -15 30 -15 20 0 30 5 30 15 0 11 12 15 45 15 33 0 45 -4
45 -15 0 -11 12 -15 50 -15 38 0 50 4 50 15 0 8 7 15 15 15 8 0 15 -7 15 -15
0 -8 7 -15 15 -15 8 0 15 7 15 15 0 8 9 15 20 15 11 0 20 -7 20 -15 0 -10 10
-15 30 -15 20 0 30 5 30 15 0 11 12 15 45 15 33 0 45 -4 45 -15 0 -12 15 -15
75 -15 60 0 75 3 75 15 0 8 9 15 20 15 17 0 20 7 20 45 0 34 -4 45 -16 45 -20
0 -44 -24 -44 -44 0 -12 -11 -16 -50 -16 -43 0 -50 3 -50 20 0 11 -7 20 -15
20 -11 0 -15 11 -15 39 0 32 4 40 23 45 39 10 67 7 67 -9 0 -10 10 -15 30 -15
20 0 30 5 30 15 0 8 -4 15 -10 15 -5 0 -10 14 -10 30 0 17 5 30 10 30 6 0 10
7 10 15 0 10 -10 15 -30 15 -20 0 -30 -5 -30 -15 0 -11 -12 -15 -45 -15 l-45
0 0 50 0 50 65 0 c58 0 65 -2 65 -20 0 -16 7 -20 30 -20 29 0 30 1 30 50 l0
50 -170 0 c-148 0 -170 -2 -170 -16 0 -18 23 -44 39 -44 7 0 11 -49 11 -145
l0 -145 -30 0 c-27 0 -30 3 -30 30 0 27 -3 30 -30 30 -27 0 -30 -3 -30 -30 0
-29 -2 -30 -45 -30 -38 0 -45 3 -45 20 0 13 -7 20 -20 20 -19 0 -20 7 -20 125
0 104 2 125 15 125 19 0 55 31 55 47 0 10 -27 13 -110 13 -103 0 -110 -1 -110
-20 0 -11 7 -20 15 -20 8 0 15 -4 15 -10 0 -5 7 -10 15 -10 13 0 15 -23 15
-145 l0 -145 -30 0 c-27 0 -30 3 -30 30 0 27 -3 30 -30 30 -16 0 -30 -4 -30
-10 0 -5 -9 -10 -20 -10 -13 0 -20 -7 -20 -20 0 -17 -7 -20 -45 -20 l-45 0 0
145 c0 122 2 145 15 145 8 0 15 5 15 10 0 6 7 10 15 10 8 0 15 9 15 20 0 19
-7 20 -110 20 -103 0 -110 -1 -110 -20z"/>
<path d="M3540 745 c0 -8 7 -15 15 -15 8 0 15 -7 15 -15 0 -8 7 -15 15 -15 13
0 15 -23 15 -145 l0 -145 -30 0 c-20 0 -30 -5 -30 -15 0 -8 7 -15 15 -15 8 0
15 -7 15 -15 0 -8 7 -15 15 -15 8 0 15 7 15 15 0 12 13 15 60 15 47 0 60 -3
60 -15 0 -12 16 -15 80 -15 l80 0 0 30 c0 20 5 30 15 30 8 0 15 9 15 20 0 13
7 20 20 20 13 0 20 -7 20 -20 0 -11 5 -20 10 -20 6 0 10 -7 10 -15 0 -11 12
-15 50 -15 38 0 50 -4 50 -15 0 -12 14 -15 65 -15 51 0 65 3 65 15 0 10 10 15
30 15 20 0 30 5 30 15 0 8 7 15 15 15 10 0 15 10 15 30 0 27 -3 30 -31 30 -33
0 -59 -19 -59 -44 0 -13 -13 -16 -65 -16 -58 0 -65 2 -65 20 0 11 -7 20 -15
20 -11 0 -15 11 -15 40 0 29 -4 40 -15 40 -10 0 -15 11 -15 35 0 24 5 35 15
35 10 0 15 10 15 30 0 20 5 30 15 30 8 0 15 9 15 20 0 11 7 20 15 20 8 0 15 5
15 10 0 6 21 10 46 10 47 0 74 -16 74 -44 0 -12 10 -16 35 -16 28 0 35 4 35
20 0 11 -7 20 -15 20 -10 0 -15 10 -15 30 l0 30 -110 0 c-91 0 -110 -3 -110
-15 0 -10 -11 -15 -35 -15 -24 0 -35 -5 -35 -15 0 -8 -4 -15 -10 -15 -5 0 -10
-9 -10 -20 0 -13 -7 -20 -20 -20 -16 0 -20 -7 -20 -30 0 -20 -5 -30 -15 -30
-10 0 -15 -11 -15 -35 0 -24 5 -35 15 -35 10 0 15 -10 15 -30 0 -27 -3 -30
-30 -30 -16 0 -30 -4 -30 -10 0 -5 -7 -10 -15 -10 -8 0 -15 -9 -15 -20 0 -17
-7 -20 -50 -20 l-50 0 0 65 0 65 35 0 c24 0 35 -5 35 -15 0 -10 10 -15 30 -15
l30 0 0 60 0 60 -30 0 c-20 0 -30 -5 -30 -15 0 -10 -11 -15 -35 -15 l-35 0 0
50 c0 43 3 50 20 50 11 0 20 5 20 10 0 6 7 10 15 10 8 0 15 -4 15 -10 0 -5 7
-10 15 -10 8 0 15 -9 15 -20 0 -16 7 -20 30 -20 29 0 30 1 30 50 l0 50 -170 0
c-144 0 -170 -2 -170 -15z"/>
<path d="M4410 746 c0 -8 -13 -17 -30 -21 -16 -4 -30 -11 -30 -16 0 -5 -7 -9
-15 -9 -10 0 -15 -11 -15 -35 0 -24 -5 -35 -15 -35 -12 0 -15 -13 -15 -60 0
-47 3 -60 15 -60 10 0 15 -10 15 -30 0 -20 5 -30 15 -30 8 0 15 -9 15 -20 0
-11 7 -20 15 -20 8 0 15 -7 15 -15 0 -10 11 -15 35 -15 24 0 35 -5 35 -15 0
-12 15 -15 75 -15 60 0 75 3 75 15 0 10 10 15 30 15 20 0 30 5 30 15 0 8 9 15
20 15 16 0 20 7 20 30 0 17 5 30 10 30 6 0 10 38 10 95 0 57 -4 95 -10 95 -5
0 -10 9 -10 20 0 13 -7 20 -20 20 -11 0 -20 7 -20 15 0 8 -7 15 -15 15 -8 0
-15 7 -15 15 0 12 -19 15 -110 15 -88 0 -110 -3 -110 -14z m130 -31 c0 -8 7
-15 15 -15 8 0 15 -9 15 -20 0 -11 7 -20 15 -20 10 0 15 -10 15 -30 0 -20 5
-30 15 -30 11 0 15 -12 15 -45 0 -33 -4 -45 -15 -45 -11 0 -15 -12 -15 -50 l0
-50 -65 0 c-52 0 -65 3 -65 16 0 20 -24 44 -44 44 -13 0 -16 15 -16 95 0 88 1
95 20 95 13 0 20 7 20 20 0 11 5 20 10 20 6 0 10 7 10 15 0 10 11 15 35 15 24
0 35 -5 35 -15z"/>
<path d="M4820 740 c0 -11 -7 -20 -15 -20 -8 0 -15 -4 -15 -10 0 -5 -7 -10
-15 -10 -11 0 -15 -12 -15 -50 0 -38 4 -50 15 -50 8 0 15 -7 15 -15 0 -8 7
-15 15 -15 8 0 15 -9 15 -20 0 -16 7 -20 35 -20 19 0 35 -4 35 -10 0 -5 14
-10 30 -10 29 0 30 -1 30 -50 l0 -50 -65 0 -65 0 0 30 c0 27 -3 30 -30 30 -29
0 -30 -2 -30 -45 0 -43 1 -45 30 -45 20 0 30 -5 30 -15 0 -12 14 -15 65 -15
51 0 65 3 65 15 0 10 10 15 30 15 20 0 30 5 30 15 0 8 7 15 15 15 12 0 15 16
15 80 0 64 -3 80 -15 80 -8 0 -15 7 -15 15 0 10 -10 15 -30 15 -20 0 -30 5
-30 15 0 10 -10 15 -30 15 -20 0 -30 5 -30 15 0 8 -9 15 -20 15 -13 0 -20 7
-20 20 0 13 7 20 20 20 11 0 20 5 20 10 0 15 49 12 66 -4 8 -8 14 -22 14 -30
0 -9 8 -16 20 -16 13 0 20 7 20 20 0 11 7 20 15 20 8 0 15 5 15 10 0 6 -7 10
-15 10 -8 0 -15 9 -15 20 0 19 -7 20 -95 20 -88 0 -95 -1 -95 -20z"/>
<path d="M5140 740 c0 -13 -7 -20 -20 -20 -11 0 -20 -4 -20 -10 0 -5 -7 -10
-15 -10 -11 0 -15 -12 -15 -50 0 -38 4 -50 15 -50 8 0 15 -7 15 -15 0 -8 9
-15 20 -15 11 0 20 -7 20 -15 0 -9 12 -18 30 -21 17 -4 30 -10 30 -15 0 -5 14
-9 30 -9 29 0 30 -1 30 -50 l0 -50 -60 0 -60 0 0 30 c0 28 -3 30 -35 30 -35 0
-35 0 -35 -45 0 -45 0 -45 35 -45 24 0 35 -5 35 -15 0 -12 13 -15 60 -15 47 0
60 3 60 15 0 10 10 15 30 15 20 0 30 5 30 15 0 8 6 15 14 15 16 0 26 43 26
111 0 42 -3 49 -20 49 -11 0 -20 7 -20 15 0 8 -7 15 -15 15 -8 0 -15 7 -15 15
0 11 -12 15 -45 15 -33 0 -45 4 -45 15 0 8 -7 15 -15 15 -8 0 -15 9 -15 20 0
11 7 20 15 20 8 0 15 5 15 10 0 6 14 10 30 10 17 0 30 -4 30 -10 0 -5 7 -10
15 -10 8 0 15 -9 15 -20 0 -11 7 -20 15 -20 11 0 15 12 15 50 l0 50 -90 0
c-83 0 -90 -1 -90 -20z"/>
<path d="M5390 744 c0 -8 7 -22 15 -30 12 -12 15 -45 15 -160 0 -121 -2 -144
-15 -144 -10 0 -15 -10 -15 -30 0 -27 3 -30 30 -30 20 0 30 5 30 15 0 11 12
15 45 15 33 0 45 -4 45 -15 0 -12 16 -15 80 -15 64 0 80 3 80 15 0 8 7 15 15
15 11 0 15 12 15 45 0 33 -4 45 -15 45 -8 0 -15 -4 -15 -10 0 -5 -7 -10 -15
-10 -8 0 -15 -9 -15 -20 0 -18 -7 -20 -60 -20 l-60 0 0 66 0 67 42 -6 c24 -3
44 -11 46 -16 2 -6 10 -11 18 -11 10 0 14 15 14 60 0 47 -3 60 -15 60 -8 0
-15 -7 -15 -15 0 -11 -12 -15 -45 -15 l-45 0 0 46 c0 26 6 52 14 60 17 16 36
19 36 4 0 -5 16 -10 35 -10 28 0 35 -4 35 -20 0 -11 7 -20 15 -20 11 0 15 12
15 50 l0 50 -155 0 c-134 0 -155 -2 -155 -16z"/>
<path d="M3410 585 c0 -8 -7 -15 -15 -15 -10 0 -15 -10 -15 -30 l0 -30 60 0
c33 0 60 4 60 10 0 6 9 10 20 10 16 0 20 7 20 35 l0 35 -65 0 c-51 0 -65 -3
-65 -15z"/>
</g>
</svg>
