<?xml version="1.0" standalone="no"?>
<!DOCTYPE svg PUBLIC "-//W3C//DTD SVG 20010904//EN"
 "http://www.w3.org/TR/2001/REC-SVG-20010904/DTD/svg10.dtd">
<svg version="1.0" xmlns="http://www.w3.org/2000/svg"
 width="180.000000pt" height="86.000000pt" viewBox="0 0 180.000000 86.000000"
 preserveAspectRatio="xMidYMid meet">

<g transform="translate(0.000000,86.000000) scale(0.100000,-0.100000)"
fill="#000000" stroke="none">
<path d="M339 801 c-131 -42 -238 -158 -268 -290 -12 -53 -2 -52 28 4 35 66
115 141 190 178 62 30 71 32 176 32 132 -1 177 -17 259 -95 29 -27 56 -50 60
-50 13 0 -35 81 -72 122 -95 105 -237 143 -373 99z"/>
<path d="M1045 666 c-8 -13 -12 -31 -9 -40 9 -23 44 -36 67 -24 28 14 20 28
-13 22 -26 -6 -30 -3 -30 14 0 26 18 38 33 23 6 -6 18 -11 26 -11 11 0 10 4
-4 20 -24 27 -51 25 -70 -4z"/>
<path d="M1160 671 c-5 -11 -14 -31 -19 -44 -9 -23 -8 -24 30 -23 44 1 44 1
24 50 -18 42 -21 43 -35 17z m20 -31 c0 -5 -5 -10 -11 -10 -5 0 -7 5 -4 10 3
6 8 10 11 10 2 0 4 -4 4 -10z"/>
<path d="M1230 645 c0 -45 20 -66 21 -22 l0 22 16 -22 c23 -34 33 -28 33 22 0
25 -4 45 -10 45 -5 0 -10 -12 -10 -27 l-1 -28 -17 28 c-24 38 -32 34 -32 -18z"/>
<path d="M1335 654 c-20 -49 -20 -49 26 -50 33 -1 39 1 34 15 -4 9 -12 28 -17
44 -13 36 -25 34 -43 -9z m30 -14 c3 -5 1 -10 -4 -10 -6 0 -11 5 -11 10 0 6 2
10 4 10 3 0 8 -4 11 -10z"/>
<path d="M1410 645 c0 -43 1 -45 28 -45 15 0 33 5 40 12 28 28 1 78 -44 78
-22 0 -24 -4 -24 -45z m56 -14 c-11 -18 -36 -13 -36 7 0 10 3 22 7 26 10 10
37 -20 29 -33z"/>
<path d="M1506 683 c-9 -10 -7 -83 3 -83 11 0 21 25 21 55 0 25 -12 39 -24 28z"/>
<path d="M1556 650 c-9 -22 -16 -42 -16 -43 0 -1 18 -2 40 -2 22 0 40 1 40 2
0 13 -34 83 -40 83 -4 0 -15 -18 -24 -40z m34 -10 c0 -5 -4 -10 -10 -10 -5 0
-10 5 -10 10 0 6 5 10 10 10 6 0 10 -4 10 -10z"/>
<path d="M1635 678 c-10 -25 -2 -71 14 -76 10 -3 12 1 8 17 -7 27 9 28 18 1 3
-11 14 -20 23 -20 13 0 17 9 16 42 -1 47 -24 67 -24 21 l0 -28 -24 30 c-21 25
-25 27 -31 13z"/>
<path d="M335 666 c-57 -18 -82 -33 -132 -79 -90 -83 -127 -221 -89 -335 19
-55 78 -129 130 -161 51 -32 61 -25 21 14 -19 20 -47 59 -62 88 -24 45 -28 63
-28 142 0 82 3 97 33 157 34 69 98 135 153 160 16 7 29 16 29 20 0 10 -6 9
-55 -6z"/>
<path d="M669 603 c100 -126 72 -313 -60 -395 -27 -17 -47 -33 -44 -36 11 -12
98 23 134 54 114 98 114 276 0 378 -51 47 -68 46 -30 -1z"/>
<path d="M374 565 c-29 -50 -28 -49 -55 -35 -23 13 -24 0 -8 -84 7 -31 9 -59
5 -63 -3 -4 -17 4 -31 17 -14 13 -28 20 -32 16 -6 -6 12 -95 22 -104 2 -3 18
7 35 22 40 33 78 33 164 1 38 -14 88 -25 115 -25 46 0 50 2 60 31 6 18 11 43
11 57 0 23 -3 24 -35 19 -29 -5 -37 -2 -46 15 -11 20 -13 20 -44 -18 -18 -21
-36 -36 -40 -32 -4 4 -2 36 4 71 15 87 15 90 -8 77 -28 -14 -27 -15 -57 35
-14 25 -28 45 -30 45 -2 0 -15 -20 -30 -45z"/>
<path d="M1046 518 c-20 -28 -20 -33 0 -52 24 -24 63 -20 75 8 25 54 -42 92
-75 44z m57 -10 c6 -19 -3 -38 -18 -38 -18 0 -28 17 -21 35 7 18 33 20 39 3z"/>
<path d="M1152 528 c-15 -15 -15 -51 0 -66 17 -17 53 -15 68 3 11 13 8 15 -21
13 -28 -3 -34 0 -34 17 0 17 6 20 34 17 29 -2 32 0 21 13 -15 18 -51 20 -68 3z"/>
<path d="M1240 495 c0 -41 2 -45 25 -45 28 0 35 20 8 21 -17 0 -17 1 -1 12 15
10 15 12 0 24 -16 11 -16 12 1 13 27 0 20 20 -8 20 -23 0 -25 -4 -25 -45z"/>
<path d="M1330 521 c-5 -11 -14 -30 -19 -44 -9 -23 -7 -24 34 -24 l43 0 -15
44 c-16 47 -27 53 -43 24z"/>
<path d="M1400 495 c0 -25 5 -45 10 -45 6 0 10 12 10 28 l1 27 17 -27 c25 -42
42 -35 42 17 0 35 -4 45 -16 45 -12 0 -15 -6 -10 -27 l6 -28 -21 28 c-29 38
-39 34 -39 -18z"/>
<path d="M1040 345 c0 -38 3 -45 19 -45 11 0 23 5 26 10 3 6 -1 10 -9 10 -12
0 -16 10 -16 35 0 19 -4 35 -10 35 -5 0 -10 -20 -10 -45z"/>
<path d="M1100 345 c0 -25 5 -45 10 -45 6 0 10 20 10 45 0 25 -4 45 -10 45 -5
0 -10 -20 -10 -45z"/>
<path d="M1130 380 c0 -5 5 -10 10 -10 6 0 10 -16 10 -35 0 -19 5 -35 10 -35
6 0 10 15 10 33 0 18 5 38 12 45 9 9 5 12 -20 12 -18 0 -32 -4 -32 -10z"/>
<path d="M1200 345 c0 -41 2 -45 25 -45 14 0 25 5 25 10 0 6 -7 10 -15 10 -8
0 -15 5 -15 10 0 6 7 10 15 10 21 0 19 18 -2 23 -17 4 -17 5 0 6 27 2 20 21
-8 21 -23 0 -25 -4 -25 -45z"/>
<path d="M1260 345 c0 -43 12 -59 24 -32 5 10 7 10 12 0 3 -7 13 -13 21 -13
13 0 13 3 3 15 -10 12 -10 18 0 30 19 23 4 45 -30 45 -29 0 -30 -2 -30 -45z
m50 15 c0 -5 -7 -10 -15 -10 -8 0 -15 5 -15 10 0 6 7 10 15 10 8 0 15 -4 15
-10z"/>
<path d="M1355 354 c-8 -20 -15 -40 -15 -45 0 -13 14 -11 28 3 8 8 15 8 27 -2
24 -20 29 -5 13 37 -20 50 -34 52 -53 7z m35 -14 c0 -5 -4 -10 -10 -10 -5 0
-10 5 -10 10 0 6 5 10 10 10 6 0 10 -4 10 -10z"/>
<path d="M1430 369 c-9 -16 -8 -26 5 -45 8 -13 22 -24 29 -24 25 0 46 12 46
26 0 17 -12 18 -27 3 -15 -15 -33 -3 -33 23 0 18 4 19 37 13 33 -6 35 -5 24 9
-20 23 -68 20 -81 -5z"/>
<path d="M1536 355 c8 -19 14 -38 13 -42 0 -4 4 -9 10 -11 6 -2 11 6 11 18 0
12 5 30 11 42 14 27 1 38 -17 14 -12 -17 -14 -18 -14 -3 0 9 -7 17 -14 17 -13
0 -13 -4 0 -35z"/>
<path d="M225 279 c27 -131 144 -229 274 -229 98 0 187 47 239 125 18 27 30
51 27 53 -2 3 -19 -10 -37 -28 -83 -83 -226 -109 -336 -61 -53 24 -152 119
-152 146 0 8 -5 17 -11 21 -8 4 -9 -4 -4 -27z"/>
<path d="M306 297 c-17 -12 -15 -15 18 -45 58 -51 136 -65 204 -36 l37 16 -75
38 c-80 42 -150 52 -184 27z"/>
<path d="M1050 230 c-11 -11 -20 -24 -20 -30 0 -12 37 -50 48 -50 16 0 47 28
39 36 -4 4 -12 3 -18 -3 -16 -16 -39 -5 -39 17 0 25 18 34 36 19 19 -16 30 -4
14 16 -17 20 -36 19 -60 -5z"/>
<path d="M1158 239 c-28 -16 -23 -67 7 -81 46 -21 86 40 49 76 -18 18 -32 20
-56 5z m42 -24 c10 -12 10 -18 0 -29 -14 -18 -40 -10 -40 13 0 32 20 40 40 16z"/>
<path d="M1267 243 c-3 -4 -12 -24 -20 -44 l-15 -36 43 0 43 0 -15 36 c-17 42
-29 56 -36 44z"/>
<path d="M1330 205 c0 -41 2 -45 25 -45 14 0 25 5 25 10 0 6 -7 10 -15 10 -10
0 -15 11 -15 35 0 19 -4 35 -10 35 -5 0 -10 -20 -10 -45z"/>
<path d="M1390 205 c0 -25 5 -45 10 -45 6 0 10 20 10 45 0 25 -4 45 -10 45 -5
0 -10 -20 -10 -45z"/>
<path d="M1425 241 c-3 -5 -1 -12 5 -16 5 -3 10 -19 10 -36 0 -16 5 -29 10
-29 6 0 10 13 10 29 0 17 5 33 10 36 15 9 2 25 -20 25 -10 0 -21 -4 -25 -9z"/>
<path d="M1490 205 c0 -25 5 -45 10 -45 6 0 10 20 10 45 0 25 -4 45 -10 45 -5
0 -10 -20 -10 -45z"/>
<path d="M1548 239 c-26 -14 -23 -65 3 -79 16 -9 26 -8 45 5 28 18 31 46 8 69
-18 18 -32 20 -56 5z m42 -24 c10 -12 10 -18 0 -29 -14 -18 -40 -10 -40 13 0
32 20 40 40 16z"/>
<path d="M1637 244 c-11 -11 -8 -84 3 -84 6 0 10 9 10 20 0 11 4 20 9 20 5 0
13 -9 16 -20 3 -11 13 -20 21 -20 16 0 20 75 4 85 -6 4 -10 -6 -10 -22 l0 -28
-23 28 c-12 16 -26 25 -30 21z"/>
</g>
</svg>
