<?xml version="1.0" standalone="no"?>
<!DOCTYPE svg PUBLIC "-//W3C//DTD SVG 20010904//EN"
 "http://www.w3.org/TR/2001/REC-SVG-20010904/DTD/svg10.dtd">
<svg version="1.0" xmlns="http://www.w3.org/2000/svg"
 width="751.000000pt" height="251.000000pt" viewBox="0 0 751.000000 251.000000"
 preserveAspectRatio="xMidYMid meet">

<g transform="translate(0.000000,251.000000) scale(0.100000,-0.100000)"
fill="#000000" stroke="none">
<path d="M380 735 l0 -455 220 0 220 0 0 455 0 455 -220 0 -220 0 0 -455z"/>
<path d="M1850 735 l0 -455 215 0 215 0 0 455 0 455 -215 0 -215 0 0 -455z"/>
<path d="M3470 1130 c0 -13 -7 -20 -20 -20 -13 0 -20 -7 -20 -20 0 -18 7 -20
80 -20 73 0 80 2 80 20 0 13 -7 20 -20 20 -13 0 -20 7 -20 20 0 17 -7 20 -40
20 -33 0 -40 -3 -40 -20z"/>
<path d="M5770 1130 c0 -13 -7 -20 -20 -20 -13 0 -20 -7 -20 -20 0 -13 -7 -20
-20 -20 -13 0 -20 -7 -20 -20 0 -13 -7 -20 -20 -20 -19 0 -20 -7 -20 -100 0
-93 1 -100 20 -100 13 0 20 -7 20 -20 0 -13 7 -20 20 -20 13 0 20 -7 20 -20 0
-13 7 -20 20 -20 13 0 20 -7 20 -20 0 -18 7 -20 55 -20 48 0 55 2 55 20 0 17
7 20 40 20 33 0 40 3 40 20 0 13 7 20 20 20 18 0 20 7 20 60 0 53 2 60 20 60
13 0 20 7 20 20 0 13 -7 20 -20 20 -18 0 -20 7 -20 60 0 53 -2 60 -20 60 -13
0 -20 7 -20 20 0 17 -7 20 -40 20 -33 0 -40 3 -40 20 0 18 -7 20 -55 20 -48 0
-55 -2 -55 -20z m150 -80 c0 -13 7 -20 20 -20 19 0 20 -7 20 -100 0 -93 -1
-100 -20 -100 -13 0 -20 -7 -20 -20 0 -18 -7 -20 -75 -20 -68 0 -75 2 -75 20
0 13 -7 20 -20 20 -19 0 -20 7 -20 100 0 93 1 100 20 100 13 0 20 7 20 20 0
18 7 20 75 20 68 0 75 -2 75 -20z"/>
<path d="M6480 1130 c0 -13 -7 -20 -20 -20 -13 0 -20 -7 -20 -20 0 -17 7 -20
40 -20 l40 0 0 40 c0 33 -3 40 -20 40 -13 0 -20 -7 -20 -20z"/>
<path d="M1290 1050 l0 -60 -60 0 c-53 0 -60 -2 -60 -20 0 -13 7 -20 20 -20
18 0 20 -7 20 -60 0 -53 -2 -60 -20 -60 -13 0 -20 7 -20 20 0 13 -7 20 -20 20
-13 0 -20 7 -20 20 0 13 -7 20 -20 20 -17 0 -20 -7 -20 -40 l0 -40 -40 0 c-33
0 -40 3 -40 20 0 13 -7 20 -20 20 -17 0 -20 -7 -20 -40 0 -33 3 -40 20 -40 13
0 20 -7 20 -20 0 -13 -7 -20 -20 -20 -16 0 -20 -7 -20 -35 0 -34 1 -35 40 -35
33 0 40 -3 40 -20 0 -13 7 -20 20 -20 13 0 20 -7 20 -20 0 -13 7 -20 20 -20
18 0 20 -7 20 -60 l0 -60 40 0 c33 0 40 3 40 20 0 17 7 20 40 20 l40 0 0 -100
0 -100 40 0 40 0 0 100 0 100 40 0 c33 0 40 -3 40 -20 0 -17 7 -20 40 -20 l40
0 0 60 c0 53 2 60 20 60 13 0 20 7 20 20 0 17 7 20 40 20 33 0 40 3 40 20 0
13 7 20 20 20 16 0 20 7 20 35 0 28 -4 35 -20 35 -13 0 -20 7 -20 20 0 13 7
20 20 20 17 0 20 7 20 40 0 33 -3 40 -20 40 -13 0 -20 -7 -20 -20 0 -17 -7
-20 -40 -20 -33 0 -40 3 -40 20 0 17 -7 20 -40 20 -33 0 -40 -3 -40 -20 0 -13
-7 -20 -20 -20 -18 0 -20 7 -20 60 0 53 2 60 20 60 13 0 20 7 20 20 0 18 -7
20 -60 20 l-60 0 0 60 0 60 -40 0 -40 0 0 -60z"/>
<path d="M3030 930 l0 -180 40 0 c33 0 40 3 40 20 0 13 -7 20 -20 20 -17 0
-20 7 -20 40 0 33 3 40 20 40 13 0 20 7 20 20 0 18 7 20 80 20 73 0 80 2 80
20 0 13 7 20 20 20 18 0 20 7 20 60 0 53 -2 60 -20 60 -13 0 -20 7 -20 20 0
19 -7 20 -120 20 l-120 0 0 -180z m200 120 c0 -13 7 -20 20 -20 13 0 20 -7 20
-20 0 -13 -7 -20 -20 -20 -13 0 -20 -7 -20 -20 0 -18 -7 -20 -80 -20 l-80 0 0
60 0 60 80 0 c73 0 80 -2 80 -20z"/>
<path d="M3980 930 c0 -173 1 -180 20 -180 19 0 20 7 20 100 0 93 1 100 20
100 13 0 20 7 20 20 0 17 7 20 40 20 l40 0 0 -120 0 -120 40 0 40 0 0 100 c0
93 -1 100 -20 100 -17 0 -20 7 -20 40 l0 40 -80 0 -80 0 0 40 c0 33 -3 40 -20
40 -19 0 -20 -7 -20 -180z"/>
<path d="M5370 1090 c0 -13 -7 -20 -20 -20 -19 0 -20 -7 -20 -140 0 -133 1
-140 20 -140 13 0 20 -7 20 -20 0 -17 7 -20 40 -20 33 0 40 3 40 20 0 13 -7
20 -20 20 -19 0 -20 7 -20 100 0 93 1 100 20 100 13 0 20 7 20 20 0 13 -7 20
-20 20 -17 0 -20 7 -20 40 0 33 -3 40 -20 40 -13 0 -20 -7 -20 -20z"/>
<path d="M3430 1010 c0 -13 -7 -20 -20 -20 -19 0 -20 -7 -20 -120 l0 -120 40
0 c33 0 40 -3 40 -20 0 -17 7 -20 40 -20 33 0 40 3 40 20 0 13 7 20 20 20 13
0 20 7 20 20 0 13 7 20 20 20 13 0 20 7 20 20 0 17 -7 20 -40 20 -33 0 -40 -3
-40 -20 0 -18 -7 -20 -60 -20 l-60 0 0 40 0 40 100 0 100 0 0 60 0 60 -40 0
c-33 0 -40 3 -40 20 0 18 -7 20 -60 20 -53 0 -60 -2 -60 -20z m120 -60 l0 -40
-60 0 c-53 0 -60 2 -60 20 0 13 7 20 20 20 13 0 20 7 20 20 0 17 7 20 40 20
l40 0 0 -40z"/>
<path d="M3750 1010 c0 -13 -7 -20 -20 -20 -13 0 -20 -7 -20 -20 0 -13 -7 -20
-20 -20 -18 0 -20 -7 -20 -80 0 -73 2 -80 20 -80 13 0 20 -7 20 -20 0 -13 7
-20 20 -20 13 0 20 -7 20 -20 0 -17 7 -20 40 -20 33 0 40 3 40 20 0 16 7 20
35 20 34 0 35 1 35 40 0 33 -3 40 -20 40 -13 0 -20 -7 -20 -20 0 -18 -7 -20
-55 -20 l-55 0 0 80 c0 73 2 80 20 80 13 0 20 7 20 20 0 13 7 20 20 20 13 0
20 -7 20 -20 0 -11 7 -20 15 -20 8 0 15 -9 15 -20 0 -13 7 -20 20 -20 17 0 20
7 20 40 0 33 -3 40 -20 40 -13 0 -20 7 -20 20 0 18 -7 20 -55 20 -48 0 -55 -2
-55 -20z"/>
<path d="M4340 1010 c0 -13 -7 -20 -20 -20 -13 0 -20 -7 -20 -20 0 -13 -7 -20
-20 -20 -18 0 -20 -7 -20 -80 0 -73 2 -80 20 -80 13 0 20 -7 20 -20 0 -13 7
-20 20 -20 13 0 20 -7 20 -20 0 -18 7 -20 60 -20 53 0 60 2 60 20 0 13 7 20
20 20 17 0 20 7 20 40 0 33 -3 40 -20 40 -13 0 -20 -7 -20 -20 0 -18 -7 -20
-60 -20 l-60 0 0 40 0 40 100 0 100 0 0 40 c0 33 -3 40 -20 40 -13 0 -20 7
-20 20 0 13 -7 20 -20 20 -13 0 -20 7 -20 20 0 18 -7 20 -60 20 -53 0 -60 -2
-60 -20z m80 -40 c0 -13 7 -20 20 -20 13 0 20 -7 20 -20 0 -18 -7 -20 -60 -20
-53 0 -60 2 -60 20 0 13 7 20 20 20 13 0 20 7 20 20 0 13 7 20 20 20 13 0 20
-7 20 -20z"/>
<path d="M4620 1010 c0 -13 -7 -20 -20 -20 -17 0 -20 -7 -20 -40 0 -33 3 -40
20 -40 13 0 20 -7 20 -20 0 -17 7 -20 40 -20 33 0 40 -3 40 -20 0 -13 7 -20
20 -20 13 0 20 -7 20 -20 0 -18 -7 -20 -60 -20 -53 0 -60 2 -60 20 0 13 -7 20
-20 20 -17 0 -20 -7 -20 -40 l0 -40 40 0 c33 0 40 -3 40 -20 0 -17 7 -20 40
-20 33 0 40 3 40 20 0 13 7 20 20 20 13 0 20 7 20 20 0 11 7 20 15 20 11 0 15
11 15 40 0 39 -1 40 -35 40 -28 0 -35 4 -35 20 0 17 -7 20 -40 20 l-40 0 0 40
0 40 40 0 c33 0 40 -3 40 -20 0 -16 7 -20 35 -20 28 0 35 4 35 20 0 11 -7 20
-15 20 -8 0 -15 9 -15 20 0 18 -7 20 -80 20 -73 0 -80 -2 -80 -20z"/>
<path d="M5090 1010 c0 -13 -7 -20 -20 -20 -13 0 -20 -7 -20 -20 0 -13 -7 -20
-20 -20 -18 0 -20 -7 -20 -80 0 -73 2 -80 20 -80 13 0 20 -7 20 -20 0 -13 7
-20 20 -20 13 0 20 -7 20 -20 0 -17 7 -20 40 -20 33 0 40 3 40 20 0 17 7 20
40 20 l40 0 0 40 c0 33 -3 40 -20 40 -13 0 -20 -7 -20 -20 0 -18 -7 -20 -60
-20 l-60 0 0 40 0 40 100 0 c93 0 100 1 100 20 0 13 -7 20 -20 20 -17 0 -20 7
-20 40 0 33 -3 40 -20 40 -13 0 -20 7 -20 20 0 18 -7 20 -60 20 -53 0 -60 -2
-60 -20z m80 -40 c0 -13 7 -20 20 -20 13 0 20 -7 20 -20 0 -18 -7 -20 -60 -20
-53 0 -60 2 -60 20 0 13 7 20 20 20 13 0 20 7 20 20 0 13 7 20 20 20 13 0 20
-7 20 -20z"/>
<path d="M6120 1010 c0 -13 -7 -20 -20 -20 -19 0 -20 -7 -20 -120 l0 -120 40
0 c33 0 40 -3 40 -20 0 -17 7 -20 40 -20 33 0 40 3 40 20 0 13 7 20 20 20 13
0 20 7 20 20 0 13 7 20 20 20 13 0 20 7 20 20 0 17 -7 20 -40 20 -33 0 -40 -3
-40 -20 0 -18 -7 -20 -60 -20 l-60 0 0 80 c0 73 2 80 20 80 13 0 20 7 20 20 0
17 7 20 40 20 l40 0 0 -40 0 -40 40 0 40 0 0 40 c0 33 -3 40 -20 40 -13 0 -20
7 -20 20 0 18 -7 20 -80 20 -73 0 -80 -2 -80 -20z"/>
<path d="M6400 1010 c0 -13 -7 -20 -20 -20 -19 0 -20 -7 -20 -100 0 -93 1
-100 20 -100 13 0 20 -7 20 -20 0 -13 7 -20 20 -20 13 0 20 -7 20 -20 0 -17 7
-20 40 -20 33 0 40 3 40 20 0 17 7 20 40 20 l40 0 0 40 c0 33 -3 40 -20 40
-13 0 -20 -7 -20 -20 0 -18 -7 -20 -80 -20 l-80 0 0 40 0 40 100 0 100 0 0 60
c0 53 -2 60 -20 60 -13 0 -20 7 -20 20 0 18 -7 20 -80 20 -73 0 -80 -2 -80
-20z m120 -40 c0 -13 7 -20 20 -20 13 0 20 -7 20 -20 0 -18 -7 -20 -80 -20
-73 0 -80 2 -80 20 0 13 7 20 20 20 13 0 20 7 20 20 0 17 7 20 40 20 33 0 40
-3 40 -20z"/>
<path d="M6720 1010 c0 -13 -7 -20 -20 -20 -13 0 -20 -7 -20 -20 0 -17 7 -20
40 -20 33 0 40 3 40 20 0 16 7 20 35 20 34 0 35 -1 35 -40 l0 -40 -55 0 c-48
0 -55 -2 -55 -20 0 -13 -7 -20 -20 -20 -18 0 -20 -7 -20 -60 0 -53 2 -60 20
-60 13 0 20 -7 20 -20 0 -16 7 -20 35 -20 28 0 35 4 35 20 0 17 7 20 40 20 33
0 40 -3 40 -20 0 -13 7 -20 20 -20 19 0 20 7 20 140 0 133 -1 140 -20 140 -13
0 -20 7 -20 20 0 18 -7 20 -75 20 -68 0 -75 -2 -75 -20z m110 -180 l0 -40 -55
0 c-48 0 -55 2 -55 20 0 13 7 20 20 20 13 0 20 7 20 20 0 16 7 20 35 20 34 0
35 -1 35 -40z"/>
<path d="M6990 890 c0 -133 1 -140 20 -140 19 0 20 7 20 100 0 93 1 100 20
100 13 0 20 7 20 20 0 13 7 20 20 20 13 0 20 -7 20 -20 0 -13 7 -20 20 -20 19
0 20 -7 20 -100 l0 -100 40 0 40 0 0 100 c0 93 -1 100 -20 100 -17 0 -20 7
-20 40 l0 40 -60 0 c-53 0 -60 -2 -60 -20 0 -13 -7 -20 -20 -20 -13 0 -20 7
-20 20 0 13 -7 20 -20 20 -19 0 -20 -7 -20 -140z"/>
<path d="M7310 1010 c0 -13 -7 -20 -20 -20 -17 0 -20 -7 -20 -40 0 -33 3 -40
20 -40 13 0 20 -7 20 -20 0 -17 7 -20 40 -20 33 0 40 -3 40 -20 0 -17 7 -20
40 -20 33 0 40 -3 40 -20 0 -18 -7 -20 -60 -20 -53 0 -60 2 -60 20 0 17 -7 20
-40 20 l-40 0 0 -40 0 -40 40 0 c33 0 40 -3 40 -20 0 -17 7 -20 40 -20 33 0
40 3 40 20 0 17 7 20 40 20 l40 0 0 60 c0 53 -2 60 -20 60 -13 0 -20 7 -20 20
0 18 -7 20 -60 20 l-60 0 0 40 0 40 40 0 c33 0 40 -3 40 -20 0 -17 7 -20 40
-20 33 0 40 3 40 20 0 13 -7 20 -20 20 -13 0 -20 7 -20 20 0 18 -7 20 -80 20
-73 0 -80 -2 -80 -20z"/>
<path d="M3150 660 c0 -17 -7 -20 -40 -20 -33 0 -40 -3 -40 -20 0 -13 -7 -20
-20 -20 -17 0 -20 -7 -20 -40 0 -33 -3 -40 -20 -40 -18 0 -20 -7 -20 -60 0
-53 2 -60 20 -60 17 0 20 -7 20 -40 0 -33 3 -40 20 -40 13 0 20 -7 20 -20 0
-13 7 -20 20 -20 13 0 20 -7 20 -20 0 -18 7 -20 80 -20 73 0 80 2 80 20 0 13
7 20 20 20 13 0 20 7 20 20 0 13 7 20 20 20 17 0 20 7 20 40 l0 40 -40 0 -40
0 0 -40 0 -40 -80 0 c-73 0 -80 2 -80 20 0 13 -7 20 -20 20 -19 0 -20 7 -20
100 0 93 1 100 20 100 13 0 20 7 20 20 0 18 7 20 80 20 l80 0 0 -40 0 -40 40
0 40 0 0 40 c0 33 -3 40 -20 40 -13 0 -20 7 -20 20 0 18 -7 20 -60 20 -53 0
-60 2 -60 20 0 13 -7 20 -20 20 -13 0 -20 -7 -20 -20z"/>
<path d="M4540 600 l0 -40 -60 0 c-53 0 -60 -2 -60 -20 0 -17 -7 -20 -40 -20
l-40 0 0 -120 c0 -113 1 -120 20 -120 13 0 20 -7 20 -20 0 -18 7 -20 60 -20
53 0 60 2 60 20 0 17 7 20 40 20 l40 0 0 180 c0 173 -1 180 -20 180 -17 0 -20
-7 -20 -40z m-40 -140 c0 -13 7 -20 20 -20 17 0 20 -7 20 -40 0 -33 -3 -40
-20 -40 -13 0 -20 -7 -20 -20 0 -13 -7 -20 -20 -20 -13 0 -20 -7 -20 -20 0
-13 -7 -20 -20 -20 -13 0 -20 7 -20 20 0 13 -7 20 -20 20 -18 0 -20 7 -20 80
l0 80 60 0 c53 0 60 -2 60 -20z"/>
<path d="M3470 540 c0 -13 -7 -20 -20 -20 -17 0 -20 -7 -20 -40 0 -33 3 -40
20 -40 13 0 20 -7 20 -20 0 -13 -7 -20 -20 -20 -13 0 -20 -7 -20 -20 0 -13 -7
-20 -20 -20 -13 0 -20 -7 -20 -20 0 -13 7 -20 20 -20 17 0 20 -7 20 -40 l0
-40 60 0 c53 0 60 2 60 20 0 17 7 20 40 20 33 0 40 -3 40 -20 0 -13 7 -20 20
-20 17 0 20 7 20 40 0 33 -3 40 -20 40 -19 0 -20 7 -20 100 0 93 -1 100 -20
100 -13 0 -20 7 -20 20 0 18 -7 20 -60 20 -53 0 -60 -2 -60 -20z m80 -40 c0
-13 7 -20 20 -20 13 0 20 -7 20 -20 0 -18 -7 -20 -60 -20 -53 0 -60 2 -60 20
0 13 7 20 20 20 13 0 20 7 20 20 0 13 7 20 20 20 13 0 20 -7 20 -20z m40 -140
c0 -33 -3 -40 -20 -40 -13 0 -20 -7 -20 -20 0 -17 -7 -20 -40 -20 l-40 0 0 40
0 40 40 0 c33 0 40 3 40 20 0 13 7 20 20 20 17 0 20 -7 20 -40z"/>
<path d="M3830 540 c0 -17 -7 -20 -40 -20 -33 0 -40 -3 -40 -20 0 -13 -7 -20
-20 -20 -19 0 -20 -7 -20 -100 0 -93 1 -100 20 -100 13 0 20 -7 20 -20 0 -13
7 -20 20 -20 19 0 20 7 20 120 l0 120 55 0 55 0 0 -120 c0 -113 1 -120 20
-120 19 0 20 7 20 140 0 133 -1 140 -20 140 -13 0 -20 7 -20 20 0 16 -7 20
-35 20 -28 0 -35 -4 -35 -20z"/>
<path d="M4100 540 c0 -13 -7 -20 -20 -20 -13 0 -20 -7 -20 -20 0 -13 -7 -20
-20 -20 -13 0 -20 -7 -20 -20 0 -13 7 -20 20 -20 13 0 20 7 20 20 0 18 7 20
80 20 73 0 80 -2 80 -20 0 -18 -7 -20 -60 -20 -53 0 -60 -2 -60 -20 0 -17 -7
-20 -40 -20 l-40 0 0 -60 c0 -53 2 -60 20 -60 13 0 20 -7 20 -20 0 -18 7 -20
60 -20 53 0 60 2 60 20 0 13 7 20 20 20 13 0 20 -7 20 -20 0 -17 7 -20 40 -20
33 0 40 3 40 20 0 13 -7 20 -20 20 -19 0 -20 7 -20 120 0 113 -1 120 -20 120
-13 0 -20 7 -20 20 0 18 -7 20 -60 20 -53 0 -60 -2 -60 -20z m80 -180 c0 -33
-3 -40 -20 -40 -13 0 -20 -7 -20 -20 0 -13 -7 -20 -20 -20 -13 0 -20 7 -20 20
0 13 -7 20 -20 20 -13 0 -20 7 -20 20 0 17 7 20 40 20 33 0 40 3 40 20 0 13 7
20 20 20 17 0 20 -7 20 -40z"/>
<path d="M4700 540 c0 -13 -7 -20 -20 -20 -17 0 -20 -7 -20 -40 0 -33 3 -40
20 -40 13 0 20 -7 20 -20 0 -13 -7 -20 -20 -20 -13 0 -20 -7 -20 -20 0 -13 -7
-20 -20 -20 -13 0 -20 -7 -20 -20 0 -13 7 -20 20 -20 13 0 20 -7 20 -20 0 -13
7 -20 20 -20 13 0 20 -7 20 -20 0 -17 7 -20 40 -20 33 0 40 3 40 20 0 16 7 20
35 20 28 0 35 -4 35 -20 0 -13 7 -20 20 -20 18 0 20 7 20 80 0 73 -2 80 -20
80 -13 0 -20 7 -20 20 0 13 7 20 20 20 13 0 20 7 20 20 0 13 -7 20 -20 20 -13
0 -20 7 -20 20 0 13 -7 20 -20 20 -13 0 -20 7 -20 20 0 18 -7 20 -55 20 -48 0
-55 -2 -55 -20z m80 -40 c0 -11 7 -20 15 -20 8 0 15 -9 15 -20 0 -18 -7 -20
-55 -20 -48 0 -55 2 -55 20 0 13 7 20 20 20 13 0 20 7 20 20 0 13 7 20 20 20
13 0 20 -7 20 -20z m30 -140 c0 -29 -4 -40 -15 -40 -8 0 -15 -9 -15 -20 0 -13
-7 -20 -20 -20 -13 0 -20 7 -20 20 0 13 -7 20 -20 20 -13 0 -20 7 -20 20 0 17
7 20 40 20 33 0 40 3 40 20 0 11 7 20 15 20 11 0 15 -11 15 -40z"/>
</g>
</svg>
