<?xml version="1.0" standalone="no"?>
<!DOCTYPE svg PUBLIC "-//W3C//DTD SVG 20010904//EN"
 "http://www.w3.org/TR/2001/REC-SVG-20010904/DTD/svg10.dtd">
<svg version="1.0" xmlns="http://www.w3.org/2000/svg"
 width="180.000000pt" height="47.000000pt" viewBox="0 0 180.000000 47.000000"
 preserveAspectRatio="xMidYMid meet">

<g transform="translate(0.000000,47.000000) scale(0.100000,-0.100000)"
fill="#000000" stroke="none">
<path d="M414 438 c-94 -63 -428 -417 -410 -436 9 -8 75 40 146 105 78 71 98
83 144 83 60 0 98 -75 62 -123 -12 -15 -13 -12 -9 25 4 35 1 47 -16 62 -20 18
-21 18 -28 0 -3 -11 -10 -21 -14 -24 -4 -3 -9 -23 -11 -45 -3 -35 0 -40 25
-49 22 -8 32 -6 55 10 43 32 57 69 43 115 -13 44 -43 69 -83 69 -16 0 -28 3
-27 8 0 4 24 26 52 50 l52 43 6 -78 c8 -97 21 -139 59 -191 33 -46 79 -78 65
-46 -56 129 -70 239 -46 372 11 59 9 82 -8 82 -4 0 -30 -15 -57 -32z m-84
-348 c0 -13 -11 -13 -30 0 -12 8 -11 10 8 10 12 0 22 -4 22 -10z"/>
<path d="M653 413 c-15 -6 -18 -93 -3 -93 6 0 10 9 10 20 0 11 7 20 15 20 8 0
15 5 15 10 0 6 -7 10 -15 10 -8 0 -15 5 -15 10 0 6 9 10 21 10 11 0 17 5 14
10 -7 11 -22 12 -42 3z"/>
<path d="M732 404 c-41 -29 -23 -84 28 -84 49 0 68 51 32 83 -23 21 -32 21
-60 1z m56 -30 c4 -29 -23 -51 -43 -34 -16 13 -20 42 -8 54 14 14 48 1 51 -20z"/>
<path d="M1120 409 c0 -5 7 -9 15 -9 11 0 15 -11 15 -40 0 -22 5 -40 10 -40 6
0 10 18 10 40 0 22 5 40 10 40 6 0 10 4 10 8 0 4 -16 8 -35 9 -19 1 -35 -3
-35 -8z"/>
<path d="M1267 402 c-36 -39 -12 -86 40 -80 20 2 30 11 38 32 8 24 6 31 -14
47 -29 24 -43 24 -64 1z m61 -28 c4 -25 -22 -49 -43 -40 -15 5 -21 47 -8 60
14 14 48 1 51 -20z"/>
<path d="M830 365 c0 -25 5 -45 10 -45 6 0 10 15 10 33 l1 32 28 -32 c15 -18
31 -33 34 -33 4 0 7 20 7 45 0 25 -4 45 -10 45 -5 0 -10 -12 -10 -27 l-1 -28
-24 28 c-34 38 -45 34 -45 -18z"/>
<path d="M940 366 c0 -44 1 -46 29 -46 36 0 53 20 49 57 -3 24 -8 28 -40 31
l-38 3 0 -45z m58 22 c16 -16 15 -23 -4 -42 -24 -25 -34 -19 -34 19 0 36 15
46 38 23z"/>
<path d="M1051 368 c-19 -45 -19 -60 1 -40 16 16 45 15 51 0 2 -7 7 -10 11 -7
9 8 -18 82 -32 87 -7 2 -21 -16 -31 -40z m39 2 c0 -5 -4 -10 -10 -10 -5 0 -10
5 -10 10 0 6 5 10 10 10 6 0 10 -4 10 -10z"/>
<path d="M1210 365 c0 -25 5 -45 10 -45 6 0 10 20 10 45 0 25 -4 45 -10 45 -5
0 -10 -20 -10 -45z"/>
<path d="M1370 365 c0 -26 5 -45 11 -45 7 0 10 12 7 30 -6 38 -1 38 33 -2 l28
-33 1 48 c0 26 -4 47 -9 47 -4 0 -6 -12 -3 -27 l5 -28 -30 28 c-16 15 -32 27
-36 27 -4 0 -7 -20 -7 -45z"/>
<path d="M985 266 c-19 -19 -23 -30 -16 -47 10 -27 57 -47 74 -30 8 8 4 11
-16 11 -14 0 -30 8 -36 17 -14 26 5 53 37 53 21 0 24 2 12 10 -22 14 -28 13
-55 -14z"/>
<path d="M640 235 c0 -25 5 -45 10 -45 6 0 10 7 10 15 0 8 4 15 9 15 5 0 17 7
26 16 20 20 3 44 -31 44 -22 0 -24 -4 -24 -45z m42 20 c0 -5 -5 -11 -11 -13
-6 -2 -11 4 -11 13 0 9 5 15 11 13 6 -2 11 -8 11 -13z"/>
<path d="M720 235 c0 -25 5 -45 10 -45 6 0 10 10 10 23 l1 22 20 -24 c11 -13
22 -21 26 -18 3 4 0 14 -7 22 -9 11 -10 19 -2 27 17 17 2 38 -29 38 -28 0 -29
-2 -29 -45z m42 20 c0 -5 -5 -11 -11 -13 -6 -2 -11 4 -11 13 0 9 5 15 11 13 6
-2 11 -8 11 -13z"/>
<path d="M810 235 c0 -25 5 -45 10 -45 6 0 10 20 10 45 0 25 -4 45 -10 45 -5
0 -10 -20 -10 -45z"/>
<path d="M860 235 c0 -25 5 -45 10 -45 6 0 10 14 10 30 l0 30 29 -32 c16 -18
31 -31 33 -28 2 3 1 25 -3 50 -4 32 -6 37 -7 16 l-2 -30 -28 27 c-15 15 -31
27 -35 27 -4 0 -7 -20 -7 -45z"/>
<path d="M1070 235 c0 -44 1 -45 33 -44 27 1 29 2 9 7 -28 8 -30 24 -5 33 16
7 16 8 1 8 -27 1 -31 20 -6 30 23 10 22 10 -4 10 -27 1 -28 -1 -28 -44z"/>
<path d="M1201 238 c-21 -50 -20 -54 7 -37 17 10 23 10 36 -1 9 -7 19 -11 21
-8 7 7 -27 88 -37 88 -5 0 -17 -19 -27 -42z m39 -9 c0 -5 -4 -9 -10 -9 -5 0
-10 7 -10 16 0 8 5 12 10 9 6 -3 10 -10 10 -16z"/>
<path d="M1292 238 c-2 -46 -1 -48 26 -47 22 1 23 2 5 6 -18 3 -23 13 -26 46
l-4 42 -1 -47z"/>
<path d="M1360 236 c0 -44 1 -46 29 -46 33 0 46 13 34 32 -4 7 -7 22 -8 33 0
14 -8 21 -27 23 -27 3 -28 2 -28 -42z m42 19 c0 -5 -5 -11 -11 -13 -6 -2 -11
4 -11 13 0 9 5 15 11 13 6 -2 11 -8 11 -13z m0 -40 c0 -5 -5 -11 -11 -13 -6
-2 -11 4 -11 13 0 9 5 15 11 13 6 -2 11 -8 11 -13z"/>
<path d="M1450 235 c0 -44 0 -45 33 -44 23 1 26 3 10 6 -27 5 -31 30 -5 36 16
4 16 5 0 6 -26 2 -22 29 5 34 16 3 13 5 -10 6 -33 1 -33 0 -33 -44z"/>
<path d="M1530 236 c0 -45 20 -67 21 -23 l0 22 16 -22 c16 -24 40 -33 26 -11
-4 7 -7 26 -8 43 0 25 -4 31 -27 33 -27 3 -28 2 -28 -42z m42 19 c0 -5 -5 -11
-11 -13 -6 -2 -11 4 -11 13 0 9 5 15 11 13 6 -2 11 -8 11 -13z"/>
<path d="M1613 273 c12 -3 17 -15 17 -44 0 -21 5 -39 10 -39 6 0 10 18 10 39
0 29 5 41 18 44 9 3 -3 5 -28 5 -25 0 -37 -2 -27 -5z"/>
<path d="M1740 235 c0 -25 5 -45 10 -45 6 0 10 20 10 45 0 25 -4 45 -10 45 -5
0 -10 -20 -10 -45z"/>
<path d="M1780 235 c0 -25 5 -45 10 -45 6 0 10 20 10 45 0 25 -4 45 -10 45 -5
0 -10 -20 -10 -45z"/>
<path d="M243 167 c-26 -13 -48 -60 -38 -78 10 -15 35 29 28 48 -3 8 0 11 8 8
8 -3 20 4 27 15 13 22 8 23 -25 7z"/>
<path d="M640 100 c0 -44 3 -50 21 -50 37 0 59 19 59 50 0 31 -22 50 -59 50
-18 0 -21 -6 -21 -50z m58 3 c-2 -17 -10 -29 -20 -31 -14 -3 -18 3 -18 27 0
25 4 31 21 31 16 0 20 -5 17 -27z"/>
<path d="M744 136 c-3 -8 -4 -29 -2 -48 2 -28 7 -34 31 -36 15 -2 27 1 27 7 0
6 -9 11 -20 11 -25 0 -26 16 -2 29 16 10 16 10 0 11 -10 0 -18 5 -18 10 0 6 9
10 20 10 11 0 20 5 20 10 0 15 -50 12 -56 -4z"/>
<path d="M870 123 c0 -16 -3 -38 -6 -50 -4 -13 -2 -23 4 -23 6 0 12 15 14 33
l4 32 13 -27 c8 -16 18 -28 22 -28 4 0 10 12 14 28 l8 27 11 -35 10 -35 4 37
c2 21 -1 45 -6 55 -8 14 -12 12 -27 -17 l-17 -34 -14 32 c-16 39 -34 41 -34 5z"/>
<path d="M1005 130 c-15 -17 -16 -24 -7 -45 15 -32 37 -41 68 -27 17 8 24 20
24 40 0 52 -50 71 -85 32z m53 1 c8 -4 12 -19 10 -32 -2 -18 -9 -24 -28 -24
-28 0 -39 27 -20 50 14 17 20 18 38 6z"/>
<path d="M1110 106 c0 -25 5 -48 10 -51 6 -4 10 9 10 31 l0 37 35 -39 34 -39
1 53 c0 28 -4 52 -10 52 -5 0 -10 -12 -10 -27 l0 -27 -28 27 c-15 15 -31 27
-35 27 -4 0 -7 -20 -7 -44z"/>
<path d="M1235 114 c-18 -43 -21 -80 -4 -51 12 21 32 22 49 2 7 -9 15 -13 17
-11 7 7 -28 96 -38 96 -5 0 -16 -16 -24 -36z m35 -15 c0 -5 -4 -9 -10 -9 -5 0
-10 7 -10 16 0 8 5 12 10 9 6 -3 10 -10 10 -16z"/>
<path d="M1326 134 c-21 -21 -20 -47 2 -67 20 -19 62 -23 62 -7 0 6 -11 10
-25 10 -29 0 -43 25 -28 49 6 9 20 16 32 15 11 0 21 3 21 8 0 14 -48 9 -64 -8z"/>
<path d="M1422 138 c-28 -28 -3 -88 37 -88 22 0 51 30 51 53 0 38 -61 62 -88
35z m58 -13 c19 -23 8 -50 -20 -50 -16 0 -26 6 -28 18 -4 18 14 47 28 47 4 0
13 -7 20 -15z"/>
<path d="M220 62 c0 -12 19 -26 26 -19 2 2 -2 10 -11 17 -9 8 -15 8 -15 2z"/>
</g>
</svg>
