<?xml version="1.0" standalone="no"?>
<!DOCTYPE svg PUBLIC "-//W3C//DTD SVG 20010904//EN"
 "http://www.w3.org/TR/2001/REC-SVG-20010904/DTD/svg10.dtd">
<svg version="1.0" xmlns="http://www.w3.org/2000/svg"
 width="267.000000pt" height="306.000000pt" viewBox="0 0 267.000000 306.000000"
 preserveAspectRatio="xMidYMid meet">

<g transform="translate(0.000000,306.000000) scale(0.100000,-0.100000)"
fill="#000000" stroke="none">
<path d="M1330 2936 c0 -16 -89 -79 -191 -135 -102 -55 -221 -98 -326 -116
-88 -15 -224 -20 -189 -6 15 6 10 9 -23 19 -43 13 -52 26 -26 36 17 6 20 32 4
41 -5 4 -18 0 -28 -9 -10 -9 -31 -15 -47 -15 l-29 1 30 7 30 7 -30 7 c-16 3
-50 9 -75 12 -61 9 -211 69 -287 116 -43 26 -63 33 -63 24 0 -8 -6 -12 -14 -9
-22 8 -26 -49 -26 -376 0 -265 7 -422 25 -567 14 -116 18 -145 31 -221 78
-462 256 -894 477 -1154 36 -42 57 -77 57 -92 0 -30 30 -54 205 -168 142 -92
473 -268 504 -268 33 0 486 256 619 350 76 53 92 74 74 92 -8 8 5 29 44 75 64
76 111 144 192 278 102 171 141 263 196 457 8 29 25 87 36 128 27 94 42 183
95 550 18 123 25 451 16 734 -6 194 -14 234 -36 184 -13 -30 -174 -111 -269
-134 -39 -10 -106 -19 -148 -19 -79 0 -99 -11 -56 -30 64 -28 3 -65 -105 -65
-76 0 -85 20 -10 21 43 1 31 4 -45 10 -63 5 -134 18 -185 34 -106 34 -271 115
-347 171 -63 46 -80 53 -80 30z m95 -191 c161 -110 394 -185 574 -185 88 0
219 29 313 70 50 21 94 37 98 35 4 -2 5 -18 2 -36 -5 -31 -4 -32 24 -25 64 15
59 37 58 -269 0 -154 -6 -327 -13 -385 -13 -118 -55 -357 -72 -410 -6 -19 -19
-71 -30 -115 -21 -83 -81 -260 -105 -307 -30 -58 -11 -39 22 22 48 91 32 36
-27 -88 -168 -357 -392 -596 -696 -743 -86 -42 -162 -62 -148 -40 4 8 -6 27
-28 49 -19 21 -42 51 -50 67 -14 27 -16 28 -22 10 -31 -91 -64 -135 -102 -135
-17 0 -23 4 -20 14 4 9 -19 24 -69 46 -173 76 -402 259 -524 420 -166 218
-285 483 -360 802 -46 192 -61 288 -81 518 -14 148 -17 530 -6 547 6 10 15 10
38 -2 37 -20 53 -11 45 26 -7 38 6 43 53 19 107 -54 252 -90 366 -90 189 0
409 76 605 210 54 37 68 35 155 -25z m929 -1489 c-9 -26 -19 -45 -22 -42 -2 3
3 26 13 51 22 60 30 53 9 -9z"/>
<path d="M1390 2596 c-161 -110 -258 -227 -300 -362 -18 -59 -23 -109 -21
-227 l1 -58 79 -83 c43 -46 95 -111 116 -145 21 -34 39 -61 41 -61 2 0 4 81 4
180 l0 180 -100 0 -100 0 0 80 0 80 100 0 100 0 0 100 0 101 78 -3 77 -3 3
-97 3 -98 74 0 c48 0 75 4 75 11 0 6 -22 68 -49 138 -63 162 -69 182 -78 264
l-8 68 -95 -65z"/>
<path d="M1460 1860 c0 -88 2 -160 5 -160 2 0 19 21 37 48 18 26 51 67 75 93
40 43 62 97 63 157 0 21 -3 22 -90 22 l-90 0 0 -160z"/>
<path d="M805 1452 l0 -384 70 -24 c113 -39 222 -98 353 -191 21 -14 22 -14
22 4 0 35 -212 162 -353 212 l-82 29 -5 368 -5 369 0 -383z"/>
<path d="M1810 1493 c0 -157 2 -284 5 -281 9 9 11 568 3 568 -5 0 -8 -129 -8
-287z"/>
<path d="M656 1714 c-3 -9 -6 -188 -6 -399 l0 -383 55 -7 c103 -12 279 -54
383 -89 93 -32 129 -34 85 -6 -16 10 -15 11 5 7 12 -3 22 -4 22 -2 0 2 -22 19
-49 38 -82 59 -195 116 -298 151 l-98 33 -3 330 -2 331 -31 6 c-47 9 -56 8
-63 -10z"/>
<path d="M2030 1723 c-46 -7 -50 -33 -50 -363 l0 -306 -55 -17 c-143 -44 -355
-161 -381 -211 -13 -26 -12 -28 4 -21 120 48 435 125 511 125 11 0 21 10 25
23 3 12 6 192 6 400 0 416 6 380 -60 370z"/>
<path d="M970 1235 c0 -14 24 -38 75 -74 96 -69 223 -201 254 -266 14 -27 26
-44 29 -37 7 22 -53 116 -118 186 -36 38 -101 96 -145 129 -44 34 -83 66 -87
71 -5 6 -8 2 -8 -9z"/>
<path d="M1711 1195 c-24 -19 -47 -35 -50 -35 -3 -1 -35 -28 -71 -62 -36 -33
-47 -46 -25 -29 22 17 75 59 118 92 66 52 86 69 75 69 -2 0 -23 -16 -47 -35z"/>
<path d="M1814 1056 c-119 -48 -344 -184 -344 -207 0 -14 6 -11 72 35 84 58
218 129 298 157 71 24 110 50 75 48 -11 0 -56 -15 -101 -33z"/>
<path d="M1390 864 c0 -8 5 -12 10 -9 6 4 8 11 5 16 -9 14 -15 11 -15 -7z"/>
<path d="M782 740 c9 -14 18 -35 21 -45 3 -15 5 -14 6 7 0 15 6 30 11 33 6 3
10 12 10 18 0 7 -5 4 -11 -6 -10 -18 -11 -18 -32 0 -21 18 -21 18 -5 -7z"/>
<path d="M860 741 c-16 -32 4 -63 38 -59 24 3 27 7 27 38 0 31 -3 35 -27 38
-19 2 -30 -3 -38 -17z m58 -18 c-3 -32 -41 -45 -51 -19 -10 26 3 46 30 46 21
0 24 -4 21 -27z"/>
<path d="M952 735 c0 -16 2 -22 5 -12 2 9 2 23 0 30 -3 6 -5 -1 -5 -18z"/>
<path d="M1009 730 c-3 -29 -8 -35 -26 -34 -13 0 -23 -3 -23 -8 0 -14 50 -9
56 6 3 8 4 27 2 43 -4 27 -4 26 -9 -7z"/>
<path d="M1097 753 c-11 -10 -8 -25 3 -18 6 4 15 -8 21 -25 6 -17 13 -29 16
-27 4 5 -23 77 -30 77 -2 0 -7 -3 -10 -7z"/>
<path d="M1160 718 c0 -47 11 -46 12 1 1 23 6 31 19 31 10 0 21 -4 24 -10 3
-5 -1 -10 -9 -10 -22 0 -20 -13 5 -36 22 -19 22 -19 11 2 -8 15 -8 24 0 32 16
16 0 32 -33 32 -27 0 -29 -2 -29 -42z"/>
<path d="M1250 720 c0 -39 1 -40 33 -39 30 2 30 2 5 6 -34 5 -37 30 -5 36 l22
4 -22 2 c-32 2 -29 19 5 24 25 4 25 4 -5 6 -32 1 -33 0 -33 -39z"/>
<path d="M1373 753 c12 -3 17 -16 19 -41 l1 -37 4 35 c3 19 10 38 16 42 7 4
-4 7 -23 7 -19 -1 -27 -3 -17 -6z"/>
<path d="M1442 720 c-1 -36 1 -41 8 -22 5 12 18 22 29 22 12 0 21 -8 24 -22 2
-13 4 -3 4 22 1 25 -1 37 -4 28 -3 -11 -14 -18 -28 -18 -14 0 -25 7 -28 18 -3
9 -5 -3 -5 -28z"/>
<path d="M1530 720 c0 -39 1 -40 33 -39 31 2 31 2 4 6 -33 5 -31 25 4 34 24 7
24 7 -3 8 -16 1 -28 5 -28 10 0 5 12 12 28 14 25 4 25 4 -5 6 -32 1 -33 0 -33
-39z"/>
<path d="M1652 723 c-2 -41 -1 -43 26 -42 22 1 23 2 5 6 -17 3 -23 13 -26 41
l-4 37 -1 -42z"/>
<path d="M1723 720 c0 -25 2 -35 4 -22 2 12 2 32 0 45 -2 12 -4 2 -4 -23z"/>
<path d="M1760 740 c-16 -31 4 -62 38 -58 31 3 45 39 15 37 -10 0 -13 -3 -5
-6 21 -8 13 -23 -12 -23 -26 0 -39 21 -29 46 4 11 15 15 34 12 15 -3 26 -1 23
4 -10 16 -53 8 -64 -12z"/>
<path d="M1850 721 c0 -24 3 -41 8 -37 4 4 7 13 7 19 0 7 10 13 22 15 16 2 23
-3 26 -20 2 -13 4 -3 4 22 1 25 -1 37 -4 28 -2 -10 -12 -18 -20 -18 -9 0 -22
8 -29 18 -12 15 -13 12 -14 -27z"/>
<path d="M1952 748 c9 -7 19 -26 21 -43 4 -27 4 -27 6 7 0 20 7 39 14 41 6 3
-3 6 -22 6 -30 1 -32 -1 -19 -11z"/>
<path d="M1076 705 c-9 -26 -7 -32 5 -12 6 10 9 21 6 23 -2 3 -7 -2 -11 -11z"/>
<path d="M930 606 c-20 -25 -8 -61 21 -64 36 -4 55 21 41 53 -13 28 -43 33
-62 11z m54 -11 c9 -25 -4 -45 -30 -45 -18 0 -24 5 -24 23 0 13 3 27 7 30 12
12 41 7 47 -8z"/>
<path d="M1020 578 c0 -23 3 -38 7 -35 3 4 6 20 5 36 0 23 4 31 21 34 18 4 17
5 -5 6 -26 1 -28 -2 -28 -41z"/>
<path d="M1133 613 c12 -3 17 -16 19 -41 l1 -37 4 35 c3 19 10 38 16 42 7 4
-4 7 -23 7 -19 -1 -27 -3 -17 -6z"/>
<path d="M1260 605 c0 -18 -46 -21 -53 -2 -3 6 -5 -6 -6 -28 0 -34 2 -36 9
-17 5 12 16 22 25 22 9 0 20 -10 25 -22 7 -19 9 -16 9 20 1 23 -1 42 -4 42 -3
0 -5 -7 -5 -15z"/>
<path d="M1290 580 c0 -39 1 -40 33 -39 29 1 30 2 7 8 -17 5 -24 14 -24 31 0
17 7 26 24 31 23 6 22 7 -7 8 -32 1 -33 0 -33 -39z"/>
<path d="M1412 580 c6 -22 14 -40 19 -40 12 0 11 17 -1 25 -5 3 -10 15 -10 25
0 10 -4 21 -9 24 -5 3 -4 -12 1 -34z"/>
<path d="M1445 599 c-4 -11 -4 -23 -1 -26 3 -4 6 1 6 11 0 9 5 14 10 11 6 -3
10 1 10 9 0 23 -18 20 -25 -5z"/>
<path d="M1495 589 c-5 -23 -10 -28 -16 -18 -7 11 -9 11 -9 -3 0 -32 19 -28
30 8 7 19 10 38 7 40 -3 3 -8 -9 -12 -27z"/>
<path d="M1528 595 c-14 -31 3 -55 39 -55 27 0 38 19 29 55 -9 35 -52 35 -68
0z m60 -17 c3 -24 0 -28 -21 -28 -27 0 -40 20 -30 46 10 26 48 13 51 -18z"/>
<path d="M1621 578 c1 -24 3 -35 6 -25 2 9 12 17 20 17 9 0 22 -8 30 -17 13
-16 13 -16 4 4 -8 15 -8 22 1 25 24 8 -1 38 -32 38 -29 0 -30 -2 -29 -42z m57
20 c-3 -7 -13 -13 -23 -13 -10 0 -20 6 -22 13 -3 7 5 12 22 12 17 0 25 -5 23
-12z"/>
<path d="M1712 583 c-2 -41 -1 -43 26 -42 22 1 23 2 5 6 -17 3 -23 13 -26 41
l-4 37 -1 -42z"/>
<path d="M1780 580 c0 -41 1 -41 33 -38 29 3 32 6 32 38 0 32 -3 35 -32 38
-32 3 -33 3 -33 -38z m58 -2 c3 -24 0 -28 -22 -28 -22 0 -26 4 -26 31 0 26 3
30 23 27 16 -2 23 -11 25 -30z"/>
</g>
</svg>
